<svg width="135" height="20" viewBox="0 0 135 20" fill="none" xmlns="http://www.w3.org/2000/svg">
<path d="M11.75 9.775C13.4 10.55 14.425 12.125 14.425 14.025C14.425 16.875 11.975 19.025 8.75 19.025H0.675V1.525H8.575C11.675 1.525 13.95 3.4 13.95 6C13.95 7.55 13.075 8.95 11.75 9.775ZM9.375 6.8C9.375 5.875 8.75 5.275 7.75 5.275H5.3V8.325H7.75C8.75 8.325 9.375 7.7 9.375 6.8ZM7.925 15.05C8.975 15.05 9.65 14.4 9.65 13.45C9.65 12.525 8.975 11.875 7.925 11.875H5.3V15.05H7.925ZM27.6342 5.5H31.1092V19H27.5092L27.1092 18.05C26.0092 18.95 24.6092 19.45 23.0342 19.45C18.9092 19.45 15.9592 16.45 15.9592 12.25C15.9592 8.075 18.9092 5.1 23.0342 5.1C24.6342 5.1 26.0592 5.625 27.1592 6.55L27.6342 5.5ZM23.6592 15.35C25.4092 15.35 26.6842 14.025 26.6842 12.25C26.6842 10.5 25.4092 9.2 23.6592 9.2C21.9092 9.2 20.6342 10.5 20.6342 12.25C20.6342 14.025 21.9092 15.35 23.6592 15.35ZM42.1938 5.125C45.3188 5.125 47.3938 7.35 47.3938 10.775V19H42.7438V11.425C42.7438 9.85 42.1438 9.075 40.9688 9.075C39.5188 9.075 38.6938 10.075 38.6938 11.8V19H34.0438V5.5H37.3188L37.9438 6.9C38.9438 5.775 40.4438 5.125 42.1938 5.125ZM63.882 19H58.382L55.007 13.3V19H50.357V0.625H55.007V10.8L58.232 5.5H63.457L59.232 11.95L63.882 19ZM72.374 1.5C77.674 1.5 81.424 5.125 81.424 10.25C81.424 15.35 77.674 19 72.374 19H65.299V1.5H72.374ZM72.149 14.6C74.749 14.6 76.474 12.825 76.474 10.25C76.474 7.65 74.749 5.925 72.149 5.925H70.149V14.6H72.149ZM94.602 5.5H98.077V19H94.477L94.077 18.05C92.977 18.95 91.577 19.45 90.002 19.45C85.877 19.45 82.927 16.45 82.927 12.25C82.927 8.075 85.877 5.1 90.002 5.1C91.602 5.1 93.027 5.625 94.127 6.55L94.602 5.5ZM90.627 15.35C92.377 15.35 93.652 14.025 93.652 12.25C93.652 10.5 92.377 9.2 90.627 9.2C88.877 9.2 87.602 10.5 87.602 12.25C87.602 14.025 88.877 15.35 90.627 15.35ZM106.212 19.45C102.537 19.45 100.312 17.5 100.262 14.575H104.737C104.737 15.575 105.437 16.025 106.312 16.025C106.987 16.025 107.637 15.675 107.637 14.975C107.637 14.2 106.612 13.975 105.312 13.775C103.212 13.425 100.437 12.8 100.437 9.525C100.437 6.825 102.762 5.075 106.212 5.075C109.637 5.075 111.887 6.9 111.937 9.625H107.562C107.562 8.775 106.987 8.375 106.162 8.375C105.412 8.375 104.912 8.75 104.912 9.375C104.912 10.125 105.937 10.325 107.212 10.55C109.362 10.925 112.187 11.375 112.187 14.775C112.187 17.6 109.812 19.45 106.212 19.45ZM122.616 5.125C125.716 5.125 127.716 7.375 127.716 10.875V19H123.066V11.425C123.066 9.875 122.516 9.075 121.291 9.075C119.891 9.075 119.016 10.075 119.016 11.8V19H114.366V0.625H119.016V6.4C120.016 5.6 121.266 5.125 122.616 5.125ZM130.304 19V14.7H134.829V19H130.304Z" fill="#343C6A"/>
</svg>
