<svg width="20" height="20" viewBox="0 0 20 20" fill="none" xmlns="http://www.w3.org/2000/svg">
<g clip-path="url(#clip0_201_234)">
<path d="M9.84338 20H8.28088C7.50545 20 6.87463 19.3692 6.87463 18.5938V8.90625C6.87463 8.13082 7.50545 7.5 8.28088 7.5H9.84338C10.6188 7.5 11.2496 8.13082 11.2496 8.90625V18.5938C11.2496 19.3692 10.6188 20 9.84338 20Z" fill="#FF82AC"/>
<path d="M3.90589 20H2.34339C1.56796 20 0.937134 19.3692 0.937134 18.5938V12.0312C0.937134 11.2558 1.56796 10.625 2.34339 10.625H3.90589C4.68132 10.625 5.31214 11.2558 5.31214 12.0312V18.5938C5.31214 19.3692 4.68128 20 3.90589 20Z" fill="#FF82AC"/>
<path d="M15.7811 20H14.2186C13.4432 20 12.8124 19.3692 12.8124 18.5938V5.625H11.9538C11.5524 5.625 11.1988 5.39844 11.031 5.03375C10.8633 4.66906 10.9214 4.2532 11.1826 3.9484C11.1856 3.94492 11.1887 3.94145 11.1917 3.93805L14.5344 0.207891C14.653 0.0755859 14.8222 0 14.9999 0C15.1775 0 15.3467 0.0755859 15.4653 0.207891L18.808 3.93805C18.8111 3.94145 18.8141 3.94492 18.8171 3.9484C19.0784 4.25316 19.1364 4.66906 18.9687 5.03375C18.801 5.39844 18.4474 5.625 18.046 5.625H17.1874V18.5938C17.1874 19.3692 16.5565 20 15.7811 20Z" fill="#FF82AC"/>
</g>
<defs>
<clipPath id="clip0_201_234">
<rect width="20" height="20" fill="white"/>
</clipPath>
</defs>
</svg>
