<svg width="201" height="198" viewBox="0 0 201 198" fill="none" xmlns="http://www.w3.org/2000/svg">
<path opacity="0.83" d="M156.63 60.2508C142.107 45.4466 121.941 36.1954 99.5714 35.9818C77.2021 35.7682 56.8562 44.6485 42.0632 59.1605C27.2702 73.6724 18.0077 93.8497 17.7942 116.219C17.5806 138.588 26.4609 158.934 40.9728 173.727C55.4848 188.52 75.6621 197.783 98.0314 197.996C120.401 198.21 140.747 189.33 155.54 174.818C170.344 160.294 179.595 140.128 179.809 117.759C180.022 95.3898 171.142 75.055 156.63 60.2508Z" fill="url(#paint0_radial_196_421)" fill-opacity="0.5"/>
<path d="M8.41989 106.045C8.19507 129.449 17.48 150.739 32.6777 166.229C47.8753 181.719 68.9744 191.409 92.3779 191.633L93.1872 106.866L8.41989 106.045Z" fill="#FFBB38"/>
<path d="M41.7601 106.361C41.6252 120.569 47.2568 133.485 56.4856 142.882C65.7031 152.28 78.5064 158.159 92.7149 158.294L93.2095 106.855L41.7601 106.361Z" fill="#FFB11F"/>
<path d="M27.9223 40.3318C10.8924 57.0357 0.247299 80.2368 0 105.967L93.198 106.855L94.086 13.6572C68.3444 13.4099 44.9522 23.6279 27.9223 40.3318Z" fill="#4C78FF"/>
<path d="M57.1716 70.1317C47.7742 79.3492 41.8953 92.1525 41.7604 106.361L93.1985 106.856L93.6931 55.4174C79.4847 55.2825 66.569 60.9142 57.1716 70.1317Z" fill="#3464F3"/>
<path d="M169.479 32.014C150.325 12.4886 123.729 0.281021 94.2103 0L93.1874 106.856L200.043 107.879C200.335 78.36 188.634 51.5281 169.479 32.014Z" fill="#16DBCC"/>
<path d="M129.911 70.8287C120.694 61.4313 107.89 55.5524 93.682 55.4175L93.1874 106.856L144.626 107.35C144.772 93.1418 139.14 80.2261 129.911 70.8287Z" fill="#1EC6B8"/>
<path d="M93.1981 106.856L92.4674 183.069C113.51 183.271 132.642 174.919 146.57 161.262C160.497 147.604 169.209 128.63 169.4 107.587L93.1981 106.856Z" fill="#FF82AC"/>
<path opacity="0.08" d="M93.1193 115.139L93.198 106.855L8.43067 106.045C8.40819 108.844 8.5206 111.61 8.75666 114.33L93.1193 115.139Z" fill="url(#paint1_linear_196_421)"/>
<path d="M93.1983 106.856L92.7037 158.294C106.912 158.429 119.828 152.797 129.225 143.58C138.623 134.362 144.502 121.559 144.637 107.351L93.1983 106.856Z" fill="#FF6195"/>
<path opacity="0.83" d="M127.303 88.9828C120.694 82.2495 111.521 78.0342 101.337 77.933C91.1526 77.8318 81.9013 81.8786 75.1681 88.4769C68.4348 95.0866 64.2195 104.259 64.1183 114.443C64.0171 124.628 68.0638 133.879 74.6622 140.612C81.2719 147.345 90.4444 151.561 100.629 151.662C110.813 151.763 120.064 147.716 126.797 141.118C133.531 134.508 137.746 125.336 137.847 115.151C137.948 104.967 133.913 95.716 127.303 88.9828Z" fill="url(#paint2_radial_196_421)" fill-opacity="0.5"/>
<path d="M119.513 81.035C112.904 74.3017 103.731 70.0864 93.5467 69.9853C83.3625 69.8841 74.1113 73.9308 67.378 80.5292C60.6448 87.1388 56.4294 96.3113 56.3283 106.496C56.2271 116.68 60.2738 125.931 66.8722 132.664C73.4818 139.398 82.6544 143.613 92.8386 143.714C103.023 143.815 112.274 139.769 119.007 133.17C125.741 126.561 129.956 117.388 130.057 107.204C130.158 97.0195 126.123 87.7683 119.513 81.035Z" fill="white"/>
<defs>
<radialGradient id="paint0_radial_196_421" cx="0" cy="0" r="1" gradientUnits="userSpaceOnUse" gradientTransform="translate(98.7971 116.99) rotate(0.544294) scale(81.0159)">
<stop/>
<stop offset="1" stop-opacity="0"/>
</radialGradient>
<linearGradient id="paint1_linear_196_421" x1="50.7159" y1="116.39" x2="50.8085" y2="106.642" gradientUnits="userSpaceOnUse">
<stop stop-color="white"/>
<stop offset="1"/>
</linearGradient>
<radialGradient id="paint2_radial_196_421" cx="0" cy="0" r="1" gradientUnits="userSpaceOnUse" gradientTransform="translate(100.991 114.797) rotate(0.544293) scale(36.8646 36.8646)">
<stop/>
<stop offset="1" stop-opacity="0"/>
</radialGradient>
</defs>
</svg>
