<svg width="283" height="178" viewBox="0 0 283 178" fill="none" xmlns="http://www.w3.org/2000/svg">
<rect y="68" width="10" height="85" rx="4" fill="#FC7900"/>
<rect x="15" width="10" height="153" rx="4" fill="#1814F3"/>
<path d="M8.94283 168.455H9.96555C9.91868 167.138 8.70419 166.153 7.01669 166.153C5.34624 166.153 4.03374 167.125 4.03374 168.591C4.03374 169.767 4.88601 170.466 6.24965 170.858L7.32351 171.165C8.24396 171.42 9.06215 171.744 9.06215 172.614C9.06215 173.568 8.14169 174.199 6.93146 174.199C5.89169 174.199 4.97124 173.739 4.88601 172.75H3.7951C3.89737 174.182 5.05646 175.153 6.93146 175.153C8.94283 175.153 10.0849 174.045 10.0849 172.631C10.0849 170.994 8.53374 170.466 7.63033 170.227L6.74396 169.989C6.09624 169.818 5.05646 169.477 5.05646 168.54C5.05646 167.705 5.82351 167.091 6.9826 167.091C8.03942 167.091 8.84055 167.594 8.94283 168.455ZM13.6122 175.153C14.7543 175.153 15.3509 174.54 15.5554 174.114H15.6065V175H16.6122V170.688C16.6122 168.608 15.027 168.369 14.1918 168.369C13.2031 168.369 12.0781 168.71 11.5668 169.903L12.5213 170.244C12.7429 169.767 13.267 169.256 14.2259 169.256C15.1506 169.256 15.6065 169.746 15.6065 170.585V170.619C15.6065 171.105 15.1122 171.062 13.919 171.216C12.7045 171.374 11.3793 171.642 11.3793 173.142C11.3793 174.42 12.3679 175.153 13.6122 175.153ZM13.7656 174.25C12.9645 174.25 12.3849 173.892 12.3849 173.193C12.3849 172.426 13.0838 172.188 13.8679 172.085C14.294 172.034 15.4361 171.915 15.6065 171.71V172.631C15.6065 173.449 14.9588 174.25 13.7656 174.25ZM21.2944 168.455H19.8967V166.886H18.891V168.455H17.9023V169.307H18.891V173.398C18.891 174.54 19.8114 175.085 20.6637 175.085C21.0387 175.085 21.2773 175.017 21.4137 174.966L21.2092 174.062C21.1239 174.08 20.9876 174.114 20.766 174.114C20.3228 174.114 19.8967 173.977 19.8967 173.125V169.307H21.2944V168.455Z" fill="#718EBF"/>
<rect x="43" y="97" width="10" height="56" rx="4" fill="#FC7900"/>
<rect x="58" y="33" width="10" height="120" rx="4" fill="#1814F3"/>
<path d="M51.0073 168.455H52.03C51.9831 167.138 50.7686 166.153 49.0811 166.153C47.4107 166.153 46.0982 167.125 46.0982 168.591C46.0982 169.767 46.9505 170.466 48.3141 170.858L49.388 171.165C50.3084 171.42 51.1266 171.744 51.1266 172.614C51.1266 173.568 50.2061 174.199 48.9959 174.199C47.9561 174.199 47.0357 173.739 46.9505 172.75H45.8596C45.9618 174.182 47.1209 175.153 48.9959 175.153C51.0073 175.153 52.1493 174.045 52.1493 172.631C52.1493 170.994 50.5982 170.466 49.6948 170.227L48.8084 169.989C48.1607 169.818 47.1209 169.477 47.1209 168.54C47.1209 167.705 47.888 167.091 49.0471 167.091C50.1039 167.091 50.905 167.594 51.0073 168.455ZM57.8755 172.324C57.8755 173.551 56.938 174.114 56.188 174.114C55.3528 174.114 54.7562 173.5 54.7562 172.545V168.455H53.7505V172.614C53.7505 174.284 54.6369 175.085 55.8642 175.085C56.8528 175.085 57.5005 174.557 57.8074 173.892H57.8755V175H58.8812V168.455H57.8755V172.324ZM61.7289 171.062C61.7289 169.92 62.4363 169.273 63.3993 169.273C64.3326 169.273 64.8993 169.882 64.8993 170.909V175H65.905V170.841C65.905 169.17 65.0144 168.369 63.6891 168.369C62.7005 168.369 62.0868 168.812 61.78 169.477H61.6948V168.455H60.7232V175H61.7289V171.062Z" fill="#718EBF"/>
<rect x="86" y="101" width="10" height="52" rx="4" fill="#FC7900"/>
<rect x="101" y="78" width="10" height="75" rx="4" fill="#1814F3"/>
<path d="M87.1291 166.273V175H88.1177V168.369H88.2029L90.9302 175H91.8848L94.612 168.369H94.6973V175H95.6859V166.273H94.4245L91.4586 173.517H91.3564L88.3904 166.273H87.1291ZM100.328 175.136C102.1 175.136 103.294 173.79 103.294 171.761C103.294 169.716 102.1 168.369 100.328 168.369C98.5549 168.369 97.3617 169.716 97.3617 171.761C97.3617 173.79 98.5549 175.136 100.328 175.136ZM100.328 174.233C98.981 174.233 98.3674 173.074 98.3674 171.761C98.3674 170.449 98.981 169.273 100.328 169.273C101.674 169.273 102.288 170.449 102.288 171.761C102.288 173.074 101.674 174.233 100.328 174.233ZM105.834 171.062C105.834 169.92 106.542 169.273 107.505 169.273C108.438 169.273 109.005 169.882 109.005 170.909V175H110.01V170.841C110.01 169.17 109.12 168.369 107.795 168.369C106.806 168.369 106.192 168.812 105.885 169.477H105.8V168.455H104.829V175H105.834V171.062Z" fill="#718EBF"/>
<rect x="129" y="24" width="10" height="129" rx="4" fill="#FC7900"/>
<rect x="144" y="80" width="10" height="73" rx="4" fill="#1814F3"/>
<path d="M131.697 167.21H134.441V175H135.498V167.21H138.242V166.273H131.697V167.21ZM142.971 172.324C142.971 173.551 142.034 174.114 141.284 174.114C140.449 174.114 139.852 173.5 139.852 172.545V168.455H138.846V172.614C138.846 174.284 139.733 175.085 140.96 175.085C141.949 175.085 142.596 174.557 142.903 173.892H142.971V175H143.977V168.455H142.971V172.324ZM148.563 175.136C149.893 175.136 150.864 174.472 151.171 173.483L150.2 173.21C149.944 173.892 149.352 174.233 148.563 174.233C147.383 174.233 146.569 173.47 146.522 172.068H151.273V171.642C151.273 169.205 149.825 168.369 148.461 168.369C146.688 168.369 145.512 169.767 145.512 171.778C145.512 173.79 146.671 175.136 148.563 175.136ZM146.522 171.199C146.59 170.18 147.31 169.273 148.461 169.273C149.552 169.273 150.251 170.091 150.251 171.199H146.522Z" fill="#718EBF"/>
<rect x="215" y="57" width="10" height="96" rx="4" fill="#FC7900"/>
<rect x="230" y="98" width="10" height="55" rx="4" fill="#1814F3"/>
<path d="M217.699 167.21H220.443V175H221.5V167.21H224.244V166.273H217.699V167.21ZM226.744 171.062C226.744 169.92 227.473 169.273 228.466 169.273C229.412 169.273 229.983 169.869 229.983 170.909V175H230.989V170.841C230.989 169.158 230.094 168.369 228.756 168.369C227.725 168.369 227.137 168.8 226.83 169.477H226.744V166.273H225.739V175H226.744V171.062ZM236.954 172.324C236.954 173.551 236.016 174.114 235.266 174.114C234.431 174.114 233.834 173.5 233.834 172.545V168.455H232.829V172.614C232.829 174.284 233.715 175.085 234.942 175.085C235.931 175.085 236.579 174.557 236.885 173.892H236.954V175H237.959V168.455H236.954V172.324Z" fill="#718EBF"/>
<rect x="258" y="40" width="10" height="113" rx="4" fill="#FC7900"/>
<rect x="273" y="10" width="10" height="143" rx="4" fill="#1814F3"/>
<path d="M264.414 175H265.471V171.097H269.255V170.159H265.471V167.21H269.647V166.273H264.414V175ZM271.251 175H272.256V170.858C272.256 169.972 272.955 169.324 273.91 169.324C274.178 169.324 274.455 169.375 274.523 169.392V168.369C274.408 168.361 274.144 168.352 273.995 168.352C273.211 168.352 272.529 168.795 272.29 169.443H272.222V168.455H271.251V175ZM275.715 175H276.721V168.455H275.715V175ZM276.227 167.364C276.619 167.364 276.943 167.057 276.943 166.682C276.943 166.307 276.619 166 276.227 166C275.835 166 275.511 166.307 275.511 166.682C275.511 167.057 275.835 167.364 276.227 167.364Z" fill="#718EBF"/>
<rect x="172" y="61" width="10" height="92" rx="4" fill="#FC7900"/>
<rect x="187" y="17" width="10" height="136" rx="4" fill="#1814F3"/>
<path d="M174.033 175H175.124L177.05 168.045H177.118L179.044 175H180.135L182.521 166.273H181.447L179.624 173.381H179.538L177.68 166.273H176.487L174.629 173.381H174.544L172.72 166.273H171.646L174.033 175ZM185.837 175.136C187.166 175.136 188.138 174.472 188.445 173.483L187.473 173.21C187.217 173.892 186.625 174.233 185.837 174.233C184.656 174.233 183.842 173.47 183.795 172.068H188.547V171.642C188.547 169.205 187.098 168.369 185.734 168.369C183.962 168.369 182.786 169.767 182.786 171.778C182.786 173.79 183.945 175.136 185.837 175.136ZM183.795 171.199C183.864 170.18 184.584 169.273 185.734 169.273C186.825 169.273 187.524 170.091 187.524 171.199H183.795ZM192.548 175.136C193.81 175.136 194.236 174.352 194.457 173.994H194.577V175H195.548V166.273H194.543V169.494H194.457C194.236 169.153 193.844 168.369 192.565 168.369C190.912 168.369 189.77 169.682 189.77 171.744C189.77 173.824 190.912 175.136 192.548 175.136ZM192.685 174.233C191.423 174.233 190.776 173.125 190.776 171.727C190.776 170.347 191.406 169.273 192.685 169.273C193.912 169.273 194.56 170.261 194.56 171.727C194.56 173.21 193.895 174.233 192.685 174.233Z" fill="#718EBF"/>
</svg>
