<svg width="20" height="20" viewBox="0 0 20 20" fill="none" xmlns="http://www.w3.org/2000/svg">
<g clip-path="url(#clip0_201_241)">
<path d="M19.9844 3.48288C19.8994 2.51617 18.7258 2.08574 18.0389 2.77277L17.0577 3.75398C16.8383 3.97335 16.4781 3.97695 16.2547 3.76195C16.023 3.53886 16.035 3.15453 16.2628 2.92671L17.2279 1.96163C17.9142 1.27534 17.4855 0.10136 16.518 0.0161651C13.8884 -0.215046 11.8026 2.23054 12.5 4.82382L0.554565 16.7693C-0.185122 17.5089 -0.185239 18.7062 0.554565 19.4461C1.29257 20.184 2.49331 20.1841 3.23132 19.4461L15.1737 7.50363C17.736 8.20035 20.2181 6.13648 19.9844 3.48288Z" fill="#16DBCC"/>
<path d="M1.2495 4.5885C1.27751 4.64373 1.31407 4.6942 1.35786 4.73799L3.05348 6.43357C3.28231 6.6624 3.65329 6.66236 3.88208 6.43357L4.74438 5.57127L6.39118 7.21807L4.63059 8.97861C4.17438 9.43564 4.17477 10.179 4.63098 10.6356L4.81575 10.8203L10.8248 4.81162L10.6401 4.62685C10.1815 4.16908 9.44157 4.16842 8.98235 4.62685L7.21977 6.38943L5.57297 4.74264L6.43528 3.88033C6.66411 3.65154 6.66411 3.28053 6.43528 3.05174L4.73969 1.35611C4.69544 1.31182 4.64434 1.27494 4.5884 1.24686L2.42114 0.158105C2.19536 0.0446676 1.92247 0.088691 1.74379 0.267363L0.262935 1.74818C0.0837946 1.92732 0.0400837 2.20127 0.154576 2.42728L1.2495 4.5885Z" fill="#16DBCC"/>
<path d="M14.2546 10.0801L10.0837 14.251L14.8737 19.0422C16.026 20.1945 17.8916 20.1948 19.0442 19.0422C20.1942 17.8922 20.1942 16.0212 19.0442 14.8716L14.2546 10.0801ZM17.6869 17.6836C17.4596 17.9118 17.0876 17.9128 16.8584 17.6836L13.5328 14.358C13.3039 14.1291 13.3039 13.758 13.5328 13.5295C13.7617 13.3006 14.1328 13.3006 14.3613 13.5295L17.6869 16.8552C17.9158 17.0841 17.9158 17.4547 17.6869 17.6836Z" fill="#16DBCC"/>
</g>
<defs>
<clipPath id="clip0_201_241">
<rect width="20" height="20" fill="white"/>
</clipPath>
</defs>
</svg>
