<svg width="20" height="20" viewBox="0 0 20 20" fill="none" xmlns="http://www.w3.org/2000/svg">
<path d="M16.425 5.98755C16.4151 4.8945 15.9744 3.84948 15.1985 3.07947C14.4227 2.30946 13.3743 1.87665 12.2812 1.87505H6.24998C6.10018 1.87312 5.95466 1.92507 5.83995 2.02143C5.72523 2.1178 5.64894 2.25216 5.62498 2.40005L3.48748 15.8063C3.47413 15.8951 3.48006 15.9857 3.50486 16.072C3.52967 16.1582 3.57277 16.2382 3.63123 16.3063C3.68932 16.376 3.7619 16.4323 3.84393 16.4712C3.92596 16.51 4.01547 16.5305 4.10623 16.5313H6.68748L6.54998 17.4001C6.53538 17.4901 6.54067 17.5822 6.56547 17.67C6.59027 17.7578 6.63398 17.8391 6.69354 17.9082C6.7531 17.9773 6.82707 18.0325 6.91024 18.07C6.99341 18.1074 7.08377 18.1262 7.17498 18.1251H10.0812C10.2301 18.1272 10.3749 18.0761 10.4895 17.981C10.6041 17.8859 10.6809 17.753 10.7062 17.6063L11.3312 13.7876H13.3C14.5322 13.7826 15.7124 13.29 16.5826 12.4175C17.4527 11.545 17.9421 10.3635 17.9437 9.1313V8.9563C17.9431 8.37667 17.8051 7.80543 17.5411 7.2894C17.2772 6.77337 16.8947 6.32724 16.425 5.98755ZM6.78123 3.12505H12.2812C12.937 3.12706 13.5726 3.35124 14.0846 3.76101C14.5965 4.17077 14.9544 4.74194 15.1 5.3813C14.8296 5.31789 14.5527 5.28642 14.275 5.28755H9.06248C8.91268 5.28562 8.76716 5.33757 8.65244 5.43393C8.53773 5.5303 8.46144 5.66466 8.43748 5.81255L8.06873 8.12505C8.04221 8.29081 8.08262 8.46032 8.18108 8.59628C8.27954 8.73225 8.42797 8.82353 8.59373 8.85005C8.75949 8.87657 8.929 8.83616 9.06496 8.7377C9.20093 8.63925 9.29221 8.49081 9.31873 8.32505L9.60623 6.52505H14.2875C14.5871 6.52662 14.8838 6.58385 15.1625 6.6938C15.0437 7.67221 14.5716 8.57354 13.835 9.2284C13.0985 9.88327 12.1481 10.2466 11.1625 10.2501H8.26248C8.11359 10.2479 7.96881 10.299 7.85423 10.3941C7.73965 10.4892 7.66278 10.6221 7.63748 10.7688L6.87498 15.2813H4.83748L6.78123 3.12505ZM16.6937 9.1313C16.6921 10.032 16.3344 10.8956 15.6987 11.5337C15.0629 12.1717 14.2007 12.5326 13.3 12.5376H10.8C10.6511 12.5354 10.5063 12.5865 10.3917 12.6816C10.2771 12.7767 10.2003 12.9096 10.175 13.0563L9.54998 16.8751H7.89998L8.03748 16.0063L8.78748 11.5126H11.15C12.3168 11.5091 13.4497 11.1198 14.3721 10.4054C15.2946 9.69092 15.9548 8.6914 16.25 7.56255C16.5401 7.96927 16.6953 8.45673 16.6937 8.9563V9.1313Z" fill="#396AFF"/>
</svg>
