<svg width="20" height="20" viewBox="0 0 20 20" fill="none" xmlns="http://www.w3.org/2000/svg">
<path d="M16.7547 0C15.6108 0 14.6834 0.927344 14.6834 2.07129V8.25156H18.2401C18.5637 8.25156 18.826 7.98922 18.826 7.66563V2.07129C18.826 0.927344 17.8987 0 16.7547 0V0Z" fill="#FF82AC"/>
<path d="M7.08435 14.7266C7.08435 11.187 9.96369 8.27176 13.5506 8.28152V2.32367C13.5506 1.43238 13.8861 0.618086 14.4372 0H4.10267C2.48783 0 1.17377 1.31406 1.17377 2.92891V19.4035C1.17377 19.9306 1.81857 20.1896 2.18314 19.8086L2.93275 19.0258L3.72455 19.818C3.95306 20.0465 4.32416 20.0465 4.55306 19.818L5.30345 19.068L6.06127 19.8195C6.28978 20.0461 6.65814 20.0461 6.88666 19.8195L7.65658 19.0562L8.42689 19.8195C8.65502 20.0461 9.02298 20.0461 9.2515 19.8199L9.40072 19.6723C7.94791 18.4576 7.08435 16.6616 7.08435 14.7266ZM5.91384 4.72656H7.07025V3.57016C7.07025 3.24656 7.33259 2.98422 7.65619 2.98422C7.97978 2.98422 8.24213 3.24656 8.24213 3.57016V4.72656H9.39853C9.72213 4.72656 9.98447 4.98891 9.98447 5.3125C9.98447 5.63609 9.72213 5.89844 9.39853 5.89844H8.24213V7.05484C8.24213 7.37844 7.97978 7.64078 7.65619 7.64078C7.33259 7.64078 7.07025 7.37844 7.07025 7.05484V5.89844H5.91384C5.59025 5.89844 5.32791 5.63609 5.32791 5.3125C5.32791 4.98891 5.59025 4.72656 5.91384 4.72656ZM4.14052 8.83008H8.08588C8.40947 8.83008 8.67181 9.09242 8.67181 9.41602C8.67181 9.73961 8.40947 10.002 8.08588 10.002H4.14052C3.81693 10.002 3.55459 9.73961 3.55459 9.41602C3.55459 9.09242 3.81693 8.83008 4.14052 8.83008ZM6.0956 14.6855H4.13662C3.81302 14.6855 3.55068 14.4232 3.55068 14.0996C3.55068 13.776 3.81302 13.5137 4.13662 13.5137H6.0956C6.4192 13.5137 6.68154 13.776 6.68154 14.0996C6.68154 14.4232 6.4192 14.6855 6.0956 14.6855ZM6.48627 12.3457H4.13853C3.81494 12.3457 3.55259 12.0834 3.55259 11.7598C3.55259 11.4362 3.81494 11.1738 4.13853 11.1738H6.48627C6.80986 11.1738 7.0722 11.4362 7.0722 11.7598C7.0722 12.0834 6.80986 12.3457 6.48627 12.3457Z" fill="#FF82AC"/>
<path d="M13.5297 9.45312C10.6219 9.45312 8.25623 11.8188 8.25623 14.7266C8.25623 17.6343 10.6219 20 13.5297 20C16.4374 20 18.8031 17.6343 18.8031 14.7266C18.8031 11.8188 16.4374 9.45312 13.5297 9.45312ZM14.1174 16.9832V17.0389C14.1174 17.3625 13.8551 17.6248 13.5315 17.6248C13.2079 17.6248 12.9456 17.3625 12.9456 17.0389V17.0289C12.6831 16.9664 12.4396 16.863 12.2465 16.7367C11.9757 16.5595 11.8998 16.1964 12.0769 15.9255C12.2541 15.6547 12.6172 15.5788 12.8881 15.756C13.1279 15.9129 13.5232 15.9725 13.7175 15.8811C13.8434 15.8218 13.9408 15.6954 13.9544 15.5736C13.9834 15.3141 13.5769 15.1694 13.3342 15.0735C12.9669 14.9285 12.5098 14.7479 12.2445 14.2689C11.8662 13.5861 12.1975 12.6858 12.9456 12.3779V12.3484C12.9456 12.0248 13.2079 11.7625 13.5315 11.7625C13.8519 11.7625 14.1119 12.0198 14.117 12.3389C14.3279 12.4048 14.5222 12.5103 14.6777 12.6538C14.9156 12.8732 14.9306 13.2439 14.7111 13.4818C14.4917 13.7197 14.121 13.7346 13.8832 13.5152C13.7868 13.4263 13.4897 13.3904 13.3606 13.4771C13.2738 13.5354 13.2398 13.6473 13.2695 13.7009C13.3933 13.9243 14.0413 14.0009 14.5318 14.3831C15.5336 15.1638 15.1851 16.5736 14.1174 16.9832Z" fill="#FF82AC"/>
</svg>
