<svg width="25" height="25" viewBox="0 0 25 25" fill="none" xmlns="http://www.w3.org/2000/svg">
<path d="M5.20825 22.9167C5.20891 23.469 5.42861 23.9986 5.81917 24.3891C6.20973 24.7797 6.73925 24.9994 7.29159 25H17.7083C18.2606 24.9994 18.7901 24.7797 19.1807 24.3891C19.5712 23.9986 19.7909 23.469 19.7916 22.9167V22.0052H5.20825V22.9167Z" fill="#B1B1B1"/>
<path d="M19.7916 2.08333C19.7909 1.531 19.5712 1.00148 19.1807 0.610917C18.7901 0.220358 18.2606 0.00065473 17.7083 0L7.29159 0C6.73925 0.00065473 6.20973 0.220358 5.81917 0.610917C5.42861 1.00148 5.20891 1.531 5.20825 2.08333V3.125H19.7916V2.08333Z" fill="#B1B1B1"/>
<path d="M24.7097 6.70052L21.5847 3.44531L20.0819 4.88802L21.3893 6.25H19.7916V8.33333H21.5017L20.1126 9.66459L21.554 11.1688L24.679 8.17396C24.7778 8.07926 24.857 7.96602 24.912 7.8407C24.9671 7.71538 24.9968 7.58045 24.9997 7.44361C25.0026 7.30677 24.9784 7.17071 24.9287 7.04321C24.8789 6.91571 24.8045 6.79926 24.7097 6.70052Z" fill="#B1B1B1"/>
<path d="M16.6666 6.24996H19.7916V4.16663H5.20825V16.6666H8.33325V18.75H5.20825V20.8333H19.7916V8.33329H16.6666V6.24996ZM15.6249 10.4166H11.9791C11.841 10.4166 11.7085 10.4715 11.6108 10.5692C11.5131 10.6669 11.4583 10.7993 11.4583 10.9375C11.4583 11.0756 11.5131 11.2081 11.6108 11.3057C11.7085 11.4034 11.841 11.4583 11.9791 11.4583H13.0208C13.6666 11.4576 14.2896 11.697 14.7688 12.1298C15.2481 12.5627 15.5494 13.1582 15.6144 13.8007C15.6793 14.4433 15.5031 15.087 15.1201 15.607C14.737 16.1269 14.1745 16.486 13.5416 16.6145V17.7083H11.4583V16.6666H9.37492V14.5833H13.0208C13.1589 14.5833 13.2914 14.5284 13.389 14.4307C13.4867 14.3331 13.5416 14.2006 13.5416 14.0625C13.5416 13.9243 13.4867 13.7919 13.389 13.6942C13.2914 13.5965 13.1589 13.5416 13.0208 13.5416H11.9791C11.3333 13.5423 10.7103 13.3029 10.231 12.8701C9.75173 12.4372 9.45039 11.8417 9.38549 11.1992C9.32058 10.5566 9.49674 9.9129 9.87977 9.39294C10.2628 8.87298 10.8254 8.51389 11.4583 8.38538V7.29163H13.5416V8.33329H15.6249V10.4166Z" fill="#B1B1B1"/>
<path d="M3.49828 16.6667L4.88734 15.3355L3.44593 13.8313L0.320931 16.8261C0.222115 16.9208 0.142929 17.034 0.0879011 17.1594C0.0328728 17.2847 0.00308028 17.4196 0.000226477 17.5564C-0.00262733 17.6933 0.0215135 17.8293 0.0712692 17.9568C0.121025 18.0843 0.19542 18.2008 0.290202 18.2995L3.4152 21.5547L4.91807 20.112L3.61064 18.75H5.2083V16.6667H3.49828Z" fill="#B1B1B1"/>
</svg>
