<svg width="20" height="20" viewBox="0 0 20 20" fill="none" xmlns="http://www.w3.org/2000/svg">
<path d="M19.6017 10.2281C19.6025 9.54666 19.5449 8.86641 19.4295 8.19482H9.99921V12.0461H15.4004C15.2899 12.6612 15.056 13.2475 14.7127 13.7698C14.3695 14.2921 13.924 14.7394 13.4033 15.0849V17.5848H16.6268C18.5142 15.8446 19.6017 13.271 19.6017 10.2281Z" fill="#4471FF"/>
<path d="M9.99925 19.9999C12.6978 19.9999 14.9699 19.1138 16.6268 17.5861L13.4033 15.0862C12.5061 15.6945 11.3506 16.0417 9.99925 16.0417C7.391 16.0417 5.17718 14.2834 4.38554 11.9141H1.06482V14.4904C1.89711 16.1465 3.17333 17.5388 4.751 18.5117C6.32868 19.4846 8.14571 19.9998 9.99925 19.9999Z" fill="#4471FF"/>
<path d="M4.38551 11.9142C3.967 10.6726 3.967 9.32812 4.38551 8.08656V5.51025H1.06479C0.364638 6.90348 0 8.44113 0 10.0004C0 11.5596 0.364638 13.0973 1.06479 14.4905L4.38551 11.9142Z" fill="#4471FF"/>
<path d="M9.99925 3.95886C11.4253 3.93556 12.8032 4.47437 13.8352 5.45881L16.6893 2.60474C14.8795 0.904898 12.482 -0.0283417 9.99925 0.000656072C8.14571 0.000740549 6.32868 0.515993 4.751 1.48889C3.17333 2.46178 1.89711 3.85403 1.06482 5.5102L4.38554 8.0865C5.17718 5.71713 7.391 3.95886 9.99925 3.95886Z" fill="#4471FF"/>
</svg>
