<svg width="20" height="20" viewBox="0 0 20 20" fill="none" xmlns="http://www.w3.org/2000/svg">
<path d="M11.7919 9.8956C14.5201 9.8956 16.7393 7.676 16.7393 4.9478C16.7393 2.2196 14.5201 0 11.7919 0C9.06365 0 6.84406 2.2196 6.84406 4.9478C6.84406 7.676 9.06365 9.8956 11.7919 9.8956ZM11.2059 2.03951V1.90513C11.2059 1.5813 11.468 1.31918 11.7919 1.31918C12.1153 1.31918 12.3778 1.5813 12.3778 1.90513V2.04029C13.0751 2.18991 13.5997 2.81102 13.5997 3.55245C13.5997 3.87589 13.3372 4.1384 13.0138 4.1384C12.6899 4.1384 12.4278 3.87589 12.4278 3.55245C12.4278 3.3458 12.2594 3.17744 12.0528 3.17744H11.5274C11.3207 3.17744 11.1524 3.3458 11.1524 3.55245C11.1524 3.67081 11.209 3.78331 11.3043 3.85363L11.7919 4.21458L12.9763 5.09116C13.3653 5.37906 13.5997 5.83962 13.6028 6.32401V6.32948C13.6056 6.74277 13.4474 7.13263 13.1567 7.42678C12.9411 7.64514 12.6716 7.79163 12.3778 7.85335V7.99047C12.3778 8.3143 12.1153 8.57642 11.7919 8.57642C11.468 8.57642 11.2059 8.3143 11.2059 7.99047V7.85531C10.92 7.79437 10.6571 7.65374 10.4446 7.44358C10.1504 7.15333 9.98712 6.76582 9.98477 6.35253C9.98282 6.02908 10.2434 5.76501 10.5668 5.76306H10.5707C10.8926 5.76306 11.1547 6.02322 11.1567 6.3455C11.1575 6.54773 11.3202 6.71816 11.5336 6.71816C11.8574 6.71621 11.7368 6.71691 12.0583 6.71504C12.2662 6.7134 12.4325 6.5446 12.4309 6.33729V6.33182C12.4302 6.21463 12.3735 6.10291 12.279 6.03299L11.7919 5.67243L10.6071 4.79584C10.2149 4.50521 9.98047 4.04035 9.98047 3.55245C9.98047 2.80946 10.5067 2.18795 11.2059 2.03951Z" fill="#396AFF"/>
<path d="M3.7751 12.7106C3.6249 12.4502 3.29126 12.3596 3.02926 12.5107L0.273008 14.1018C0.0120243 14.2529 -0.0775095 14.5867 0.0731589 14.848L2.89019 19.7271C3.04098 19.988 3.37458 20.0776 3.63604 19.927L6.39229 18.3355C6.65366 18.1848 6.74284 17.851 6.59214 17.5897L3.7751 12.7106Z" fill="#396AFF"/>
<path d="M19.5681 11.7368C19.3029 11.3684 18.7896 11.2852 18.4216 11.5504C17.3052 12.3547 15.1614 13.8993 14.991 14.0224C14.9125 14.0892 14.8301 14.1497 14.7442 14.2032C14.407 14.4153 14.016 14.5286 13.6078 14.5286H10.8011C10.4776 14.5286 10.2151 14.2665 10.2151 13.9427C10.2151 13.6184 10.478 13.3567 10.8011 13.3567H13.8027C14.2438 13.3567 14.5969 12.9895 14.5785 12.5477C14.5613 12.1286 14.2035 11.8035 13.784 11.8035H11.4991C11.3445 11.6399 11.1749 11.4899 10.9933 11.3559C10.3686 10.8953 9.59675 10.623 8.76118 10.623C7.27559 10.623 5.79742 11.559 5.18451 12.8083L7.58145 16.9596H12.0777C12.9605 16.9596 13.8301 16.7338 14.5953 16.2935C14.8606 16.1412 15.1446 15.958 15.4524 15.7369C16.7423 14.8103 19.3795 12.8852 19.3814 12.884C19.7502 12.6192 19.8338 12.1051 19.5681 11.7368Z" fill="#396AFF"/>
</svg>
