<svg width="20" height="20" viewBox="0 0 20 20" fill="none" xmlns="http://www.w3.org/2000/svg">
<path d="M10.0001 8.1281C10.3545 8.1281 10.6438 8.41674 10.6438 8.77109C10.6438 9.09443 10.9067 9.3565 11.23 9.3565C11.5526 9.3565 11.8154 9.09443 11.8154 8.77109C11.8154 7.97676 11.2979 7.30645 10.5855 7.06136V6.72916C10.5855 6.40656 10.3235 6.14301 10.0001 6.14301C9.67603 6.14301 9.41396 6.40656 9.41396 6.72916V7.06136C8.70158 7.30645 8.18556 7.97676 8.18556 8.77109C8.18556 9.77286 8.99908 10.5864 10.0001 10.5864C10.3545 10.5864 10.6438 10.8758 10.6438 11.2301C10.6438 11.5852 10.3545 11.8739 10.0001 11.8739C9.64577 11.8739 9.35712 11.5852 9.35712 11.2301C9.35712 10.9068 9.09431 10.644 8.77097 10.644C8.44689 10.644 8.18556 10.9068 8.18556 11.2301C8.18556 12.0244 8.70158 12.694 9.41396 12.9391V13.2713C9.41396 13.5954 9.67603 13.8582 10.0001 13.8582C10.3235 13.8582 10.5855 13.5954 10.5855 13.2713V12.9391C11.2979 12.694 11.8154 12.0244 11.8154 11.2301C11.8154 10.2291 11.0011 9.41482 10.0001 9.41482C9.64577 9.41482 9.35712 9.12618 9.35712 8.77109C9.35712 8.41674 9.64577 8.1281 10.0001 8.1281ZM14.9086 13.2536C15.1957 13.4049 15.5494 13.2949 15.7 13.01C16.1872 12.0894 16.4441 11.0485 16.4441 10.0002C16.4441 6.4479 13.5525 3.55701 10.0001 3.55701C6.44704 3.55701 3.55615 6.4479 3.55615 10.0002C3.55615 13.5533 6.44704 16.4442 10.0001 16.4442C11.0329 16.4442 12.059 16.1947 12.9678 15.7215C13.255 15.5731 13.3664 15.218 13.2173 14.9316C13.0682 14.6459 12.7146 14.5322 12.4267 14.6821C11.6744 15.0748 10.8572 15.2734 10.0001 15.2734C7.09298 15.2734 4.72697 12.9081 4.72697 10.0002C4.72697 7.09384 7.09298 4.72783 10.0001 4.72783C12.9072 4.72783 15.2733 7.09384 15.2733 10.0002C15.2733 10.8588 15.0621 11.71 14.665 12.4615C14.5129 12.7479 14.6221 13.1023 14.9086 13.2536ZM10.0001 1.2124C8.30294 1.2124 6.65522 1.69815 5.23561 2.61577C4.9632 2.79147 4.88569 3.15393 5.06139 3.4256C5.23782 3.69727 5.59882 3.77404 5.87196 3.59982C7.10037 2.80549 8.52957 2.3847 10.0001 2.3847C14.1999 2.3847 17.6156 5.80121 17.6156 10.0002C17.6156 14.2 14.1999 17.6165 10.0001 17.6165C5.80035 17.6165 2.38384 14.2 2.38384 10.0002C2.38384 8.54372 2.79651 7.12706 3.57829 5.9053C3.75251 5.63216 3.67279 5.26969 3.39964 5.09547C3.12724 4.92125 2.76477 5.00097 2.59129 5.27338C1.68917 6.68413 1.21228 8.32004 1.21228 10.0002C1.21228 14.8467 5.15367 18.7881 10.0001 18.7881C14.8458 18.7881 18.788 14.8467 18.788 10.0002C18.788 5.15526 14.8458 1.2124 10.0001 1.2124Z" fill="#16DBCC"/>
</svg>
