<svg width="20" height="20" viewBox="0 0 20 20" fill="none" xmlns="http://www.w3.org/2000/svg">
<g clip-path="url(#clip0_199_240)">
<path d="M18.2114 2.72841C15.6139 2.72841 13.6259 2.07743 12.4155 1.53132C11.0998 0.937663 10.3903 0.335245 10.3844 0.330201L10.0011 0L9.61728 0.329224C9.61028 0.335245 8.90073 0.937702 7.58505 1.53132C6.37474 2.07743 4.38673 2.72841 1.78926 2.72841H1.20276V10.7793L10.0003 20L18.7979 10.7874V2.72841H18.2114ZM16.4518 8.20503C16.4518 9.11454 16.0984 9.9697 15.4566 10.6137L10.0003 16.2817L4.54407 10.6137C3.90216 9.96966 3.54877 9.1145 3.54877 8.20499V7.90008C3.54877 6.01862 5.07947 4.48788 6.96097 4.48788C7.80534 4.48788 8.616 4.79897 9.2436 5.36381L9.97904 6.0257L10.5174 5.48729C11.1619 4.8428 12.0188 4.48785 12.9302 4.48785H13.0396C14.9211 4.48785 16.4518 6.01854 16.4518 7.90004V8.20503H16.4518Z" fill="#396AFF"/>
<path d="M13.0398 5.66068H12.9304C12.3324 5.66068 11.77 5.8936 11.3471 6.31651L10.0217 7.64185L8.45908 6.23546C8.0472 5.86479 7.51524 5.66064 6.96112 5.66064C5.72641 5.66064 4.72192 6.66513 4.72192 7.89984V8.20474C4.72192 8.80286 4.95484 9.3652 5.37775 9.7881L5.38557 9.79604L10.0004 14.59L14.6231 9.78806C15.046 9.36516 15.2789 8.80282 15.2789 8.2047V7.8998C15.279 6.66521 14.2745 5.66068 13.0398 5.66068ZM11.76 10.9392H10.587V12.1122H9.41395V10.9392H8.24094V9.76621H9.41395V8.5932H10.587V9.76621H11.76V10.9392Z" fill="#396AFF"/>
</g>
<defs>
<clipPath id="clip0_199_240">
<rect width="20" height="20" fill="white"/>
</clipPath>
</defs>
</svg>
