<svg width="25" height="25" viewBox="0 0 25 25" fill="none" xmlns="http://www.w3.org/2000/svg">
<path d="M14.1189 15.3372C18.3139 15.3372 21.7268 11.8971 21.7268 7.66863C21.7268 3.44019 18.3139 0 14.1189 0C9.92397 0 6.51111 3.44014 6.51111 7.66858C6.51111 11.897 9.92397 15.3372 14.1189 15.3372ZM11.6743 10.0616C11.8956 9.72331 12.3493 9.62835 12.6876 9.84975C13.1805 10.1722 13.3664 10.2019 14.0169 10.1973C14.6518 10.1931 15.0202 9.71994 15.0937 9.28202C15.1296 9.06901 15.1433 8.54886 14.4986 8.32097C13.7425 8.05365 12.9686 7.74812 12.4303 7.32586C11.8919 6.9036 11.6454 6.17464 11.787 5.42358C11.9404 4.60936 12.5084 3.96121 13.2693 3.73205C13.2762 3.73 13.2829 3.72835 13.2898 3.7263V3.44882C13.2898 3.04457 13.6175 2.71684 14.0218 2.71684C14.426 2.71684 14.7538 3.04457 14.7538 3.44882V3.68018C15.2509 3.79886 15.5981 4.02631 15.7391 4.13167C16.0629 4.37376 16.1292 4.83242 15.8871 5.15625C15.6451 5.48009 15.1864 5.54635 14.8626 5.30421C14.7126 5.19207 14.298 4.95101 13.6915 5.13376C13.3372 5.24053 13.2453 5.59013 13.2256 5.6947C13.1869 5.9002 13.2303 6.09281 13.3338 6.17391C13.7069 6.46661 14.3787 6.72578 14.9865 6.94064C16.1074 7.33684 16.7307 8.37528 16.5375 9.5247C16.4426 10.0887 16.1589 10.6119 15.7385 10.9981C15.4522 11.2613 15.1189 11.4488 14.7538 11.556V11.8883C14.7538 12.2926 14.426 12.6203 14.0218 12.6203C13.6175 12.6203 13.2898 12.2926 13.2898 11.8883V11.629C12.8165 11.5716 12.4192 11.4236 11.8861 11.0748C11.5479 10.8535 11.453 10.3999 11.6743 10.0616V10.0616Z" fill="#B1B1B1"/>
<path d="M2.40101 17.7968H0.731986C0.327734 17.7968 0 18.1245 0 18.5287V24.267C0 24.6713 0.327734 24.999 0.731986 24.999H2.40106V17.7968H2.40101Z" fill="#B1B1B1"/>
<path d="M24.0384 17.7457C22.6665 16.3737 20.4341 16.3736 19.0622 17.7457L16.8694 19.9384L15.9707 20.8371C15.6075 21.2003 15.1148 21.4044 14.6012 21.4044H10.231C9.83631 21.4044 9.49667 21.101 9.47808 20.7068C9.45827 20.2859 9.79366 19.9384 10.2103 19.9384H14.6522C15.5454 19.9384 16.32 19.3025 16.4735 18.4227C16.5088 18.2207 16.5272 18.0129 16.5272 17.801C16.5273 17.396 16.1991 17.0674 15.7942 17.0674H13.3602C12.5648 17.0674 11.801 16.7065 10.9922 16.3244C10.1439 15.9238 9.26683 15.5094 8.24122 15.4412C7.34419 15.3814 6.44512 15.4796 5.56883 15.7327C4.63057 16.0036 3.95612 16.8372 3.87434 17.7996C3.87121 17.7993 3.86804 17.7993 3.86487 17.7991V24.9965L16.4759 25C17.3429 25 18.1582 24.6623 18.7714 24.0491L24.0383 18.7823C24.3247 18.4961 24.3247 18.0319 24.0384 17.7457V17.7457Z" fill="#B1B1B1"/>
</svg>
