<svg width="20" height="20" viewBox="0 0 20 20" fill="none" xmlns="http://www.w3.org/2000/svg">
<g clip-path="url(#clip0_199_290)">
<path d="M11.5938 12.2698C14.9498 12.2698 17.6801 9.51765 17.6801 6.1349C17.6801 2.75215 14.9498 0 11.5938 0C8.23786 0 5.50757 2.75211 5.50757 6.13486C5.50757 9.51761 8.23786 12.2698 11.5938 12.2698ZM9.63812 8.04927C9.81516 7.77865 10.1781 7.70268 10.4487 7.8798C10.8431 8.13773 10.9918 8.16151 11.5122 8.15788C12.0201 8.15452 12.3148 7.77595 12.3737 7.42562C12.4023 7.25521 12.4133 6.83909 11.8976 6.65678C11.2927 6.44292 10.6736 6.1985 10.2429 5.86069C9.81223 5.52288 9.61501 4.93971 9.72826 4.33886C9.85104 3.68749 10.3054 3.16897 10.9141 2.98564C10.9196 2.984 10.925 2.98268 10.9305 2.98104V2.75906C10.9305 2.43566 11.1927 2.17347 11.5161 2.17347C11.8395 2.17347 12.1017 2.43566 12.1017 2.75906V2.94414C12.4994 3.03909 12.7772 3.22105 12.89 3.30534C13.149 3.49901 13.202 3.86594 13.0084 4.125C12.8147 4.38407 12.4478 4.43708 12.1887 4.24337C12.0687 4.15366 11.7371 3.9608 11.2519 4.10701C10.9684 4.19242 10.8949 4.4721 10.8791 4.55576C10.8482 4.72016 10.8829 4.87425 10.9657 4.93913C11.2642 5.17329 11.8016 5.38062 12.2879 5.55251C13.1846 5.86947 13.6832 6.70023 13.5287 7.61976C13.4528 8.07094 13.2258 8.48951 12.8895 8.79851C12.6604 9.00901 12.3938 9.15908 12.1017 9.24477V9.51066C12.1017 9.83406 11.8395 10.0963 11.5161 10.0963C11.1927 10.0963 10.9305 9.83406 10.9305 9.51066V9.30317C10.5519 9.25726 10.234 9.13885 9.80755 8.85988C9.53697 8.68284 9.46107 8.31989 9.63812 8.04927Z" fill="#FF82AC"/>
<path d="M2.21964 14.2373H0.884417C0.561016 14.2373 0.298828 14.4995 0.298828 14.8229V19.4135C0.298828 19.7369 0.561016 19.9991 0.884417 19.9991H2.21968V14.2373H2.21964Z" fill="#FF82AC"/>
<path d="M19.5297 14.1965C18.4322 13.0989 16.6462 13.0989 15.5487 14.1965L13.7945 15.9507L13.0755 16.6697C12.785 16.9602 12.3908 17.1235 11.9799 17.1235H8.48378C8.16803 17.1235 7.89631 16.8808 7.88144 16.5654C7.86559 16.2287 8.13391 15.9507 8.46718 15.9507H12.0208C12.7353 15.9507 13.355 15.442 13.4778 14.7382C13.506 14.5765 13.5207 14.4104 13.5207 14.2408C13.5208 13.9168 13.2583 13.6539 12.9343 13.6539H10.9872C10.3508 13.6539 9.73975 13.3652 9.09275 13.0596C8.41413 12.739 7.71244 12.4075 6.89195 12.3529C6.17433 12.3051 5.45507 12.3837 4.75404 12.5861C4.00343 12.8029 3.46387 13.4697 3.39844 14.2397C3.39594 14.2395 3.39341 14.2394 3.39087 14.2393V19.9972L13.4797 20C14.1733 20 14.8255 19.7298 15.3161 19.2393L19.5296 15.0258C19.7587 14.7969 19.7587 14.4255 19.5297 14.1965Z" fill="#FF82AC"/>
</g>
<defs>
<clipPath id="clip0_199_290">
<rect width="20" height="20" fill="white"/>
</clipPath>
</defs>
</svg>
