<svg width="20" height="20" viewBox="0 0 20 20" fill="none" xmlns="http://www.w3.org/2000/svg">
<g clip-path="url(#clip0_192_434)">
<path d="M10.5862 10.5855V0C4.91616 0.29741 0.298142 4.91538 0.000732422 10.5855H10.5862ZM8.24259 8.82776H7.07076V7.65594H8.24259V8.82776ZM4.7271 5.31228H5.89893V6.48411H4.7271V5.31228ZM7.65667 5.06967L8.48519 5.8982L5.31302 9.07037L4.4845 8.24185L7.65667 5.06967Z" fill="#FF82AC"/>
<path d="M10.586 11.7573H3.57739C3.86293 15.4914 6.85198 18.4804 10.5861 18.766V11.7573H10.586Z" fill="#FF82AC"/>
<path d="M11.7577 2.34375C11.7577 2.4696 11.7577 20.1376 11.7577 19.9993C16.3306 19.6956 19.9996 15.7616 19.9996 11.113C19.9996 6.46401 16.3317 2.64643 11.7577 2.34375ZM15.2732 10.5856C16.2424 10.5856 17.0309 11.3741 17.0309 12.3433C17.0309 13.1062 16.5396 13.7505 15.8591 13.9932V15.2729H14.6873V13.9932C14.0067 13.7505 13.5154 13.1062 13.5154 12.3433H14.6873C14.6873 12.6666 14.9499 12.9293 15.2732 12.9293C15.5964 12.9293 15.8591 12.6666 15.8591 12.3433C15.8591 12.0201 15.5964 11.7574 15.2732 11.7574C14.3039 11.7574 13.5154 10.9689 13.5154 9.99968C13.5154 9.23683 14.0067 8.59256 14.6873 8.34987V7.07012H15.8591V8.34987C16.5396 8.59256 17.0309 9.23683 17.0309 9.99968H15.8591C15.8591 9.67642 15.5964 9.41377 15.2732 9.41377C14.9499 9.41377 14.6873 9.67642 14.6873 9.99968C14.6873 10.323 14.9499 10.5856 15.2732 10.5856Z" fill="#FF82AC"/>
</g>
<defs>
<clipPath id="clip0_192_434">
<rect width="20" height="20" fill="white"/>
</clipPath>
</defs>
</svg>
