<svg width="20" height="20" viewBox="0 0 20 20" fill="none" xmlns="http://www.w3.org/2000/svg">
<g clip-path="url(#clip0_185_314)">
<path d="M18.6544 9.57672H17.4649C17.1941 8.81922 16.7578 8.14101 16.1993 7.58659L18.0338 6.77675C18.2959 6.66104 18.4395 6.3719 18.3649 6.09534C18.1437 5.27436 17.3969 4.67041 16.5098 4.67041H14.9967C14.1266 4.67041 13.3919 5.25154 13.1552 6.04846H11.5572C10.957 8.26554 8.92961 9.90129 6.52742 9.90129C5.06104 9.90129 3.73444 9.29164 2.78674 8.31253C2.51982 8.69336 2.30119 9.11078 2.14006 9.55598C1.66142 9.45125 1.26786 9.07265 1.15783 8.5796C1.08736 8.26374 0.773957 8.06464 0.458331 8.13538C0.142509 8.20589 -0.056398 8.51906 0.0141101 8.83488C0.133954 9.37187 0.435557 9.85945 0.863332 10.2077C1.15611 10.4461 1.50037 10.612 1.86513 10.6952C1.83673 10.9185 1.82205 11.1461 1.82205 11.3772V11.9453C1.82205 14.0986 3.09338 15.9533 4.92296 16.7938V18.0851C4.92296 18.7878 5.49269 19.3576 6.19546 19.3576C6.89824 19.3576 7.46797 18.7878 7.46797 18.0851V17.274H12.2349V18.0851C12.2349 18.7878 12.8046 19.3576 13.5074 19.3576C14.2101 19.3576 14.7799 18.7878 14.7799 18.0851V16.7442C16.1176 16.0934 17.1421 14.8948 17.5644 13.4383H18.6543C19.3975 13.4383 20 12.833 20 12.0863V10.9286C20 10.182 19.3976 9.57672 18.6544 9.57672ZM14.3308 9.915C14.0084 9.915 13.747 9.65363 13.747 9.33117C13.747 9.00871 14.0084 8.74734 14.3308 8.74734C14.6533 8.74734 14.9147 9.00871 14.9147 9.33117C14.9147 9.65363 14.6533 9.915 14.3308 9.915Z" fill="#16DBCC"/>
<path d="M6.52759 0.64209C4.30059 0.64209 2.48886 2.45608 2.48886 4.68574C2.48886 6.91544 4.30063 8.72943 6.52759 8.72943C8.75455 8.72943 10.5663 6.91544 10.5663 4.68574C10.5663 2.456 8.75447 0.64209 6.52759 0.64209ZM6.15255 4.06788H6.90263C7.74873 4.06788 8.43705 4.75672 8.43705 5.6034C8.43705 6.3784 7.86014 7.02079 7.11353 7.12399V7.34407C7.11353 7.66767 6.85119 7.93001 6.52759 7.93001C6.20399 7.93001 5.94165 7.66767 5.94165 7.34407V7.13883H5.79216C5.14481 7.13883 4.61809 6.61188 4.61809 5.96414C4.61809 5.64055 4.88043 5.3782 5.20403 5.3782C5.52762 5.3782 5.78997 5.64055 5.78997 5.96414L6.90259 5.96696C7.10251 5.96696 7.26513 5.80383 7.26513 5.60336C7.26513 5.40289 7.10251 5.23976 6.90259 5.23976H6.15251C5.30641 5.23976 4.61809 4.55097 4.61809 3.70429C4.61809 2.92925 5.19501 2.28686 5.94165 2.18366V2.02745C5.94165 1.70385 6.20399 1.44151 6.52759 1.44151C6.85119 1.44151 7.11353 1.70385 7.11353 2.02745V2.16878H7.26298C7.91033 2.16878 8.43705 2.69577 8.43705 3.34351C8.43705 3.6671 8.17471 3.92945 7.85111 3.92945C7.52752 3.92945 7.26517 3.6671 7.26517 3.34351C7.26517 3.34257 7.26509 3.34218 7.26509 3.34218L6.15255 3.34066C5.95263 3.34066 5.79001 3.50378 5.79001 3.70429C5.79001 3.90476 5.95263 4.06788 6.15255 4.06788Z" fill="#16DBCC"/>
</g>
<defs>
<clipPath id="clip0_185_314">
<rect width="20" height="20" fill="white"/>
</clipPath>
</defs>
</svg>
