<svg width="353" height="189" viewBox="0 0 353 189" fill="none" xmlns="http://www.w3.org/2000/svg">
<path d="M32.6777 18.6877H329.092" stroke="#EFF2F7" stroke-width="0.73125" stroke-dasharray="5.12 5.12"/>
<path d="M32.6777 55.0732H329.092" stroke="#EFF2F7" stroke-width="0.73125" stroke-dasharray="5.12 5.12"/>
<path d="M32.6777 91.5557H329.092" stroke="#EFF2F7" stroke-width="0.73125" stroke-dasharray="5.12 5.12"/>
<path d="M31.8096 127.942H328.224" stroke="#EFF2F7" stroke-width="0.73125" stroke-dasharray="5.12 5.12"/>
<path fill-rule="evenodd" clip-rule="evenodd" d="M153.098 0.830811C148.252 0.830811 144.323 4.75951 144.323 9.60581V35.9308C144.323 40.7771 148.252 44.7058 153.098 44.7058H176.218L181.102 49.2312L185.627 44.7058H208.673C213.52 44.7058 217.448 40.7771 217.448 35.9308V9.60581C217.448 4.75951 213.52 0.830811 208.673 0.830811H153.098Z" fill="#141736"/>
<path d="M154.268 36.0279V26.0563H154.906V36.0279H154.268ZM155.654 29.5464C155.633 29.2867 155.536 29.0842 155.362 28.9387C155.191 28.7933 154.93 28.7206 154.579 28.7206C154.356 28.7206 154.173 28.7479 154.03 28.8024C153.89 28.8543 153.786 28.9258 153.718 29.0166C153.651 29.1075 153.616 29.2114 153.613 29.3283C153.608 29.4243 153.625 29.5113 153.664 29.5892C153.705 29.6645 153.77 29.7334 153.859 29.7957C153.947 29.8554 154.06 29.9099 154.197 29.9593C154.335 30.0086 154.499 30.0528 154.688 30.0917L155.343 30.2319C155.784 30.3254 156.162 30.4488 156.476 30.602C156.79 30.7552 157.047 30.9357 157.247 31.1434C157.447 31.3485 157.594 31.5797 157.688 31.8367C157.784 32.0938 157.833 32.3743 157.836 32.6781C157.833 33.2026 157.702 33.6467 157.442 34.0102C157.182 34.3738 156.811 34.6503 156.328 34.8399C155.848 35.0295 155.27 35.1242 154.595 35.1242C153.901 35.1242 153.296 35.0217 152.78 34.8165C152.265 34.6114 151.866 34.2959 151.58 33.87C151.297 33.4415 151.154 32.8936 151.151 32.2263H153.208C153.221 32.4703 153.282 32.6755 153.391 32.8417C153.5 33.0079 153.653 33.1338 153.851 33.2195C154.051 33.3052 154.288 33.3481 154.564 33.3481C154.795 33.3481 154.988 33.3195 155.144 33.2624C155.3 33.2052 155.418 33.126 155.498 33.0248C155.579 32.9235 155.62 32.8079 155.623 32.6781C155.62 32.556 155.58 32.4496 155.502 32.3587C155.427 32.2652 155.302 32.1821 155.128 32.1094C154.954 32.0341 154.719 31.964 154.423 31.8991L153.629 31.7277C152.922 31.5745 152.365 31.3187 151.958 30.9603C151.553 30.5994 151.351 30.1073 151.354 29.4841C151.351 28.9777 151.486 28.5349 151.759 28.1558C152.034 27.7741 152.415 27.4768 152.9 27.2638C153.389 27.0509 153.948 26.9444 154.579 26.9444C155.223 26.9444 155.78 27.0522 156.25 27.2677C156.72 27.4833 157.082 27.7871 157.337 28.1792C157.594 28.5687 157.724 29.0244 157.726 29.5464H155.654ZM160.86 35.0308V33.4727L163.836 31.011C164.033 30.8474 164.202 30.6942 164.342 30.5513C164.485 30.4059 164.594 30.2566 164.67 30.1034C164.747 29.9502 164.786 29.7801 164.786 29.5931C164.786 29.388 164.742 29.2127 164.654 29.0673C164.568 28.9219 164.449 28.8102 164.296 28.7323C164.142 28.6518 163.966 28.6115 163.766 28.6115C163.566 28.6115 163.389 28.6518 163.236 28.7323C163.086 28.8128 162.969 28.931 162.886 29.0868C162.803 29.2426 162.761 29.4321 162.761 29.6555H160.704C160.704 29.0945 160.83 28.6115 161.082 28.2065C161.334 27.8014 161.69 27.4897 162.149 27.2716C162.609 27.0535 163.148 26.9444 163.766 26.9444C164.405 26.9444 164.958 27.047 165.425 27.2521C165.895 27.4547 166.258 27.7403 166.512 28.1091C166.769 28.4778 166.898 28.9102 166.898 29.4062C166.898 29.7126 166.834 30.0177 166.707 30.3215C166.58 30.6227 166.351 30.9564 166.021 31.3226C165.691 31.6887 165.223 32.125 164.615 32.6313L163.867 33.2546V33.3013H166.983V35.0308H160.86ZM169.135 35.1554C168.834 35.1554 168.576 35.0502 168.36 34.8399C168.147 34.627 168.042 34.3686 168.045 34.0648C168.042 33.7687 168.147 33.5155 168.36 33.3052C168.576 33.0949 168.834 32.9897 169.135 32.9897C169.421 32.9897 169.673 33.0949 169.891 33.3052C170.112 33.5155 170.223 33.7687 170.226 34.0648C170.223 34.2673 170.17 34.4517 170.066 34.6179C169.965 34.7815 169.833 34.9126 169.669 35.0113C169.505 35.1074 169.328 35.1554 169.135 35.1554ZM174.36 35.1398C173.895 35.1398 173.453 35.0671 173.035 34.9217C172.62 34.7737 172.251 34.5413 171.929 34.2245C171.607 33.9077 171.354 33.4948 171.17 32.9858C170.988 32.4768 170.898 31.8601 170.901 31.1356C170.903 30.489 170.987 29.9073 171.15 29.3906C171.316 28.8738 171.551 28.4337 171.855 28.0701C172.162 27.7066 172.528 27.4287 172.954 27.2366C173.379 27.0418 173.853 26.9444 174.375 26.9444C174.962 26.9444 175.479 27.0574 175.926 27.2833C176.372 27.5092 176.728 27.8117 176.993 28.1909C177.26 28.5674 177.416 28.9829 177.46 29.4373H175.326C175.276 29.2114 175.162 29.0465 174.983 28.9426C174.806 28.8362 174.604 28.7829 174.375 28.7829C173.921 28.7829 173.587 28.9803 173.374 29.375C173.164 29.7697 173.056 30.2891 173.051 30.9331H173.098C173.199 30.689 173.352 30.4799 173.557 30.3059C173.762 30.132 174.001 29.9982 174.274 29.9047C174.547 29.8113 174.835 29.7645 175.139 29.7645C175.622 29.7645 176.044 29.8736 176.405 30.0917C176.768 30.3098 177.051 30.6085 177.254 30.9876C177.456 31.3667 177.556 31.8004 177.554 32.2886C177.556 32.8599 177.421 33.3597 177.149 33.7882C176.879 34.2167 176.503 34.5491 176.023 34.7854C175.543 35.0217 174.988 35.1398 174.36 35.1398ZM174.344 33.5039C174.56 33.5039 174.751 33.4545 174.917 33.3558C175.086 33.2572 175.217 33.1221 175.31 32.9508C175.406 32.7794 175.453 32.5846 175.45 32.3665C175.453 32.1458 175.406 31.951 175.31 31.7822C175.217 31.6108 175.086 31.4758 174.917 31.3771C174.751 31.2784 174.56 31.2291 174.344 31.2291C174.186 31.2291 174.039 31.2577 173.904 31.3148C173.772 31.3693 173.656 31.4485 173.557 31.5524C173.459 31.6537 173.381 31.7744 173.324 31.9146C173.269 32.0523 173.241 32.2029 173.238 32.3665C173.241 32.5846 173.29 32.7794 173.386 32.9508C173.482 33.1221 173.613 33.2572 173.779 33.3558C173.946 33.4545 174.134 33.5039 174.344 33.5039ZM182.009 35.2489C181.284 35.2463 180.659 35.0788 180.131 34.7464C179.604 34.414 179.198 33.9349 178.912 33.3091C178.627 32.6833 178.485 31.9328 178.488 31.0577C178.49 30.18 178.633 29.4347 178.916 28.8219C179.202 28.2091 179.607 27.7429 180.131 27.4235C180.659 27.1041 181.284 26.9444 182.009 26.9444C182.733 26.9444 183.359 27.1054 183.886 27.4274C184.413 27.7468 184.82 28.2129 185.106 28.8258C185.391 29.4386 185.533 30.1826 185.53 31.0577C185.53 31.938 185.387 32.6911 185.102 33.3169C184.816 33.9427 184.41 34.4218 183.882 34.7542C183.358 35.084 182.733 35.2489 182.009 35.2489ZM182.009 33.4883C182.383 33.4883 182.689 33.2935 182.928 32.904C183.17 32.5119 183.289 31.8965 183.286 31.0577C183.286 30.5098 183.232 30.0618 183.123 29.7139C183.014 29.3659 182.863 29.1088 182.671 28.9426C182.479 28.7738 182.258 28.6895 182.009 28.6895C181.635 28.6895 181.33 28.879 181.093 29.2581C180.857 29.6373 180.736 30.2371 180.731 31.0577C180.729 31.616 180.782 32.0756 180.891 32.4366C181 32.7949 181.151 33.0598 181.343 33.2312C181.538 33.4026 181.76 33.4883 182.009 33.4883ZM190.021 35.2489C189.297 35.2463 188.671 35.0788 188.144 34.7464C187.617 34.414 187.21 33.9349 186.925 33.3091C186.639 32.6833 186.497 31.9328 186.5 31.0577C186.503 30.18 186.645 29.4347 186.928 28.8219C187.214 28.2091 187.619 27.7429 188.144 27.4235C188.671 27.1041 189.297 26.9444 190.021 26.9444C190.746 26.9444 191.372 27.1054 191.899 27.4274C192.426 27.7468 192.832 28.2129 193.118 28.8258C193.403 29.4386 193.545 30.1826 193.542 31.0577C193.542 31.938 193.4 32.6911 193.114 33.3169C192.828 33.9427 192.422 34.4218 191.895 34.7542C191.37 35.084 190.746 35.2489 190.021 35.2489ZM190.021 33.4883C190.395 33.4883 190.702 33.2935 190.94 32.904C191.182 32.5119 191.301 31.8965 191.299 31.0577C191.299 30.5098 191.244 30.0618 191.135 29.7139C191.026 29.3659 190.876 29.1088 190.683 28.9426C190.491 28.7738 190.27 28.6895 190.021 28.6895C189.647 28.6895 189.342 28.879 189.106 29.2581C188.87 29.6373 188.749 30.2371 188.744 31.0577C188.741 31.616 188.794 32.0756 188.903 32.4366C189.012 32.7949 189.163 33.0598 189.355 33.2312C189.55 33.4026 189.772 33.4883 190.021 33.4883Z" fill="white"/>
<path d="M171.079 13.357L170.254 13.5907C170.202 13.4531 170.125 13.3193 170.024 13.1895C169.925 13.0571 169.79 12.948 169.619 12.8623C169.447 12.7766 169.228 12.7338 168.96 12.7338C168.594 12.7338 168.289 12.8181 168.045 12.9869C167.803 13.1531 167.683 13.3648 167.683 13.6218C167.683 13.8504 167.766 14.0308 167.932 14.1633C168.098 14.2957 168.358 14.4061 168.711 14.4944L169.599 14.7125C170.134 14.8423 170.533 15.041 170.795 15.3084C171.057 15.5733 171.188 15.9148 171.188 16.3329C171.188 16.6756 171.09 16.9821 170.892 17.2521C170.698 17.5222 170.425 17.7351 170.074 17.8909C169.724 18.0467 169.316 18.1246 168.851 18.1246C168.241 18.1246 167.736 17.9922 167.336 17.7273C166.936 17.4625 166.683 17.0756 166.576 16.5666L167.449 16.3485C167.532 16.6705 167.689 16.912 167.92 17.073C168.154 17.234 168.459 17.3145 168.836 17.3145C169.264 17.3145 169.604 17.2236 169.856 17.0418C170.111 16.8574 170.238 16.6367 170.238 16.3796C170.238 16.1719 170.165 15.9979 170.02 15.8577C169.874 15.7148 169.651 15.6084 169.35 15.5383L168.353 15.3046C167.805 15.1747 167.402 14.9735 167.145 14.7008C166.891 14.4255 166.763 14.0815 166.763 13.6686C166.763 13.331 166.858 13.0324 167.048 12.7727C167.24 12.513 167.501 12.3092 167.831 12.1612C168.163 12.0132 168.54 11.9391 168.96 11.9391C169.552 11.9391 170.017 12.069 170.355 12.3287C170.695 12.5883 170.936 12.9311 171.079 13.357ZM175.081 18.1246C174.504 18.1246 174.007 17.9974 173.589 17.7429C173.173 17.4858 172.853 17.1275 172.627 16.6679C172.403 16.2056 172.292 15.6681 172.292 15.0553C172.292 14.4424 172.403 13.9023 172.627 13.4349C172.853 12.9649 173.167 12.5987 173.569 12.3364C173.974 12.0716 174.447 11.9391 174.987 11.9391C175.299 11.9391 175.606 11.9911 175.91 12.0949C176.214 12.1988 176.491 12.3676 176.74 12.6013C176.989 12.8324 177.188 13.1388 177.336 13.5206C177.484 13.9023 177.558 14.3723 177.558 14.9306V15.3201H172.946V14.5255H176.623C176.623 14.1879 176.556 13.8867 176.421 13.6218C176.288 13.357 176.099 13.1479 175.852 12.9947C175.608 12.8415 175.319 12.7649 174.987 12.7649C174.621 12.7649 174.304 12.8558 174.037 13.0376C173.772 13.2168 173.568 13.4505 173.425 13.7387C173.282 14.0269 173.211 14.336 173.211 14.6657V15.1955C173.211 15.6473 173.289 16.0304 173.445 16.3446C173.603 16.6562 173.822 16.8938 174.103 17.0574C174.383 17.2184 174.709 17.2989 175.081 17.2989C175.322 17.2989 175.54 17.2651 175.735 17.1976C175.932 17.1275 176.102 17.0236 176.245 16.886C176.388 16.7458 176.498 16.5718 176.576 16.364L177.464 16.6133C177.371 16.9146 177.214 17.1794 176.993 17.4079C176.772 17.6339 176.5 17.8104 176.175 17.9377C175.851 18.0623 175.486 18.1246 175.081 18.1246ZM178.956 18V12.017H179.844V12.9207H179.907C180.016 12.6247 180.213 12.3845 180.499 12.2001C180.784 12.0157 181.106 11.9236 181.465 11.9236C181.532 11.9236 181.617 11.9249 181.718 11.9275C181.819 11.9301 181.896 11.9339 181.948 11.9391V12.874C181.917 12.8662 181.845 12.8545 181.733 12.8389C181.624 12.8207 181.509 12.8117 181.387 12.8117C181.096 12.8117 180.836 12.8727 180.608 12.9947C180.382 13.1142 180.203 13.2804 180.07 13.4933C179.94 13.7036 179.876 13.9438 179.876 14.2139V18H178.956ZM188.112 12.017L185.899 18H184.965L182.752 12.017H183.749L185.401 16.7847H185.463L187.115 12.017H188.112ZM189.325 18V12.017H190.244V18H189.325ZM189.793 11.0199C189.613 11.0199 189.459 10.9589 189.329 10.8368C189.202 10.7148 189.138 10.568 189.138 10.3967C189.138 10.2253 189.202 10.0786 189.329 9.95651C189.459 9.83446 189.613 9.77344 189.793 9.77344C189.972 9.77344 190.125 9.83446 190.252 9.95651C190.382 10.0786 190.447 10.2253 190.447 10.3967C190.447 10.568 190.382 10.7148 190.252 10.8368C190.125 10.9589 189.972 11.0199 189.793 11.0199ZM194.359 18.1246C193.798 18.1246 193.315 17.9922 192.91 17.7273C192.505 17.4625 192.193 17.0976 191.975 16.6328C191.757 16.168 191.648 15.6369 191.648 15.0397C191.648 14.432 191.759 13.8958 191.983 13.431C192.209 12.9636 192.523 12.5987 192.925 12.3364C193.33 12.0716 193.803 11.9391 194.343 11.9391C194.764 11.9391 195.143 12.017 195.48 12.1729C195.818 12.3287 196.095 12.5468 196.31 12.8272C196.526 13.1077 196.659 13.4349 196.711 13.8088H195.792C195.722 13.5362 195.566 13.2947 195.325 13.0843C195.086 12.8714 194.764 12.7649 194.359 12.7649C194 12.7649 193.686 12.8584 193.416 13.0454C193.149 13.2297 192.94 13.4907 192.789 13.8283C192.641 14.1633 192.567 14.5567 192.567 15.0085C192.567 15.4707 192.64 15.8732 192.785 16.216C192.933 16.5588 193.141 16.825 193.408 17.0145C193.678 17.2041 193.995 17.2989 194.359 17.2989C194.598 17.2989 194.814 17.2573 195.009 17.1742C195.204 17.0911 195.369 16.9717 195.504 16.8159C195.639 16.6601 195.735 16.4731 195.792 16.255H196.711C196.659 16.6081 196.531 16.9262 196.326 17.2093C196.123 17.4897 195.854 17.7131 195.519 17.8793C195.187 18.0428 194.8 18.1246 194.359 18.1246ZM200.564 18.1246C199.987 18.1246 199.49 17.9974 199.072 17.7429C198.656 17.4858 198.336 17.1275 198.11 16.6679C197.886 16.2056 197.775 15.6681 197.775 15.0553C197.775 14.4424 197.886 13.9023 198.11 13.4349C198.336 12.9649 198.65 12.5987 199.052 12.3364C199.457 12.0716 199.93 11.9391 200.47 11.9391C200.782 11.9391 201.089 11.9911 201.393 12.0949C201.697 12.1988 201.974 12.3676 202.223 12.6013C202.472 12.8324 202.671 13.1388 202.819 13.5206C202.967 13.9023 203.041 14.3723 203.041 14.9306V15.3201H198.429V14.5255H202.106C202.106 14.1879 202.039 13.8867 201.904 13.6218C201.771 13.357 201.582 13.1479 201.335 12.9947C201.091 12.8415 200.803 12.7649 200.47 12.7649C200.104 12.7649 199.787 12.8558 199.52 13.0376C199.255 13.2168 199.051 13.4505 198.908 13.7387C198.765 14.0269 198.694 14.336 198.694 14.6657V15.1955C198.694 15.6473 198.772 16.0304 198.928 16.3446C199.086 16.6562 199.306 16.8938 199.586 17.0574C199.866 17.2184 200.192 17.2989 200.564 17.2989C200.805 17.2989 201.023 17.2651 201.218 17.1976C201.415 17.1275 201.585 17.0236 201.728 16.886C201.871 16.7458 201.981 16.5718 202.059 16.364L202.947 16.6133C202.854 16.9146 202.697 17.1794 202.476 17.4079C202.255 17.6339 201.983 17.8104 201.658 17.9377C201.334 18.0623 200.969 18.1246 200.564 18.1246ZM208.677 13.357L207.851 13.5907C207.8 13.4531 207.723 13.3193 207.622 13.1895C207.523 13.0571 207.388 12.948 207.217 12.8623C207.045 12.7766 206.826 12.7338 206.558 12.7338C206.192 12.7338 205.887 12.8181 205.643 12.9869C205.401 13.1531 205.281 13.3648 205.281 13.6218C205.281 13.8504 205.364 14.0308 205.53 14.1633C205.696 14.2957 205.956 14.4061 206.309 14.4944L207.197 14.7125C207.732 14.8423 208.131 15.041 208.393 15.3084C208.655 15.5733 208.786 15.9148 208.786 16.3329C208.786 16.6756 208.688 16.9821 208.49 17.2521C208.296 17.5222 208.023 17.7351 207.672 17.8909C207.322 18.0467 206.914 18.1246 206.449 18.1246C205.839 18.1246 205.334 17.9922 204.934 17.7273C204.534 17.4625 204.281 17.0756 204.174 16.5666L205.047 16.3485C205.13 16.6705 205.287 16.912 205.518 17.073C205.752 17.234 206.057 17.3145 206.434 17.3145C206.862 17.3145 207.202 17.2236 207.454 17.0418C207.709 16.8574 207.836 16.6367 207.836 16.3796C207.836 16.1719 207.763 15.9979 207.618 15.8577C207.472 15.7148 207.249 15.6084 206.948 15.5383L205.951 15.3046C205.403 15.1747 205 14.9735 204.743 14.7008C204.489 14.4255 204.361 14.0815 204.361 13.6686C204.361 13.331 204.456 13.0324 204.646 12.7727C204.838 12.513 205.099 12.3092 205.429 12.1612C205.761 12.0132 206.138 11.9391 206.558 11.9391C207.15 11.9391 207.615 12.069 207.953 12.3287C208.293 12.5883 208.534 12.9311 208.677 13.357Z" fill="white"/>
<rect x="151.205" y="9.16836" width="10.9688" height="10.9688" rx="2.55938" stroke="#FEFFFF" stroke-width="0.73125"/>
<path d="M159.221 14.7025C159.245 14.7266 159.264 14.7551 159.277 14.7865C159.29 14.8179 159.297 14.8516 159.297 14.8856C159.297 14.9196 159.29 14.9532 159.277 14.9846C159.264 15.0161 159.245 15.0446 159.221 15.0686L156.876 17.4137C156.832 17.4571 156.777 17.4819 156.721 17.488C156.645 17.4971 156.565 17.4725 156.507 17.4141L154.158 15.0656C154.11 15.0171 154.082 14.9513 154.082 14.8826C154.082 14.814 154.11 14.7482 154.158 14.6996C154.207 14.6511 154.273 14.6238 154.341 14.6238C154.41 14.6238 154.476 14.651 154.524 14.6996L156.428 16.603L156.428 12.0738C156.428 12.0051 156.455 11.9393 156.504 11.8907C156.552 11.8422 156.618 11.8149 156.687 11.8149C156.755 11.8149 156.821 11.8422 156.87 11.8907C156.918 11.9393 156.945 12.0051 156.945 12.0738L156.945 16.6123L158.855 14.7025C158.879 14.6785 158.907 14.6594 158.939 14.6464C158.97 14.6334 159.004 14.6267 159.038 14.6267C159.072 14.6267 159.106 14.6334 159.137 14.6464C159.168 14.6594 159.197 14.6785 159.221 14.7025L159.221 14.7025Z" fill="#FEFFFF"/>
<path d="M34.6586 181.726C35.3606 181.726 35.9431 181.973 36.4062 182.465C36.8742 182.957 37.1082 183.564 37.1082 184.286C37.1082 185.002 36.8742 185.609 36.4062 186.107C35.9431 186.599 35.3606 186.845 34.6586 186.845H32.6476V181.726H34.6586ZM34.6586 186.041C35.1412 186.041 35.5336 185.875 35.8359 185.544C36.143 185.212 36.2966 184.793 36.2966 184.286C36.2966 183.774 36.143 183.355 35.8359 183.028C35.5336 182.697 35.1412 182.531 34.6586 182.531H33.4886V186.041H34.6586ZM38.7158 186.041H40.9827V186.845H37.8749V181.726H40.9462V182.531H38.7158V183.862H40.7633V184.659H38.7158V186.041ZM44.1301 186.94C43.3599 186.94 42.7213 186.687 42.2143 186.18C41.7073 185.668 41.4538 185.037 41.4538 184.286C41.4538 183.535 41.7073 182.906 42.2143 182.399C42.7213 181.887 43.3599 181.631 44.1301 181.631C44.5933 181.631 45.0198 181.741 45.4098 181.96C45.8047 182.18 46.1118 182.477 46.3312 182.853L45.5999 183.277C45.4634 183.023 45.2636 182.823 45.0003 182.677C44.7419 182.526 44.4519 182.45 44.1301 182.45C43.5841 182.45 43.1405 182.623 42.7993 182.97C42.4629 183.316 42.2947 183.754 42.2947 184.286C42.2947 184.817 42.4629 185.256 42.7993 185.602C43.1405 185.948 43.5841 186.121 44.1301 186.121C44.4519 186.121 44.7444 186.048 45.0076 185.902C45.2709 185.751 45.4683 185.548 45.5999 185.295L46.3312 185.712C46.1167 186.087 45.812 186.387 45.4171 186.611C45.0271 186.831 44.5981 186.94 44.1301 186.94Z" fill="#A5B4CB"/>
<path d="M48.6085 186.845V186.187L50.3927 184.366C50.8266 183.932 51.0435 183.557 51.0435 183.24C51.0435 182.992 50.968 182.799 50.8168 182.662C50.6706 182.521 50.4829 182.45 50.2538 182.45C49.8248 182.45 49.5079 182.662 49.3031 183.087L48.5938 182.67C48.7547 182.329 48.9814 182.07 49.2739 181.895C49.5664 181.719 49.8906 181.631 50.2465 181.631C50.695 181.631 51.0801 181.773 51.4018 182.056C51.7236 182.338 51.8845 182.723 51.8845 183.211C51.8845 183.733 51.5944 184.288 51.0143 184.878L49.8589 186.034H51.9795V186.845H48.6085Z" fill="#141736"/>
<path d="M80.4945 181.726C81.1965 181.726 81.7791 181.973 82.2422 182.465C82.7102 182.957 82.9442 183.564 82.9442 184.286C82.9442 185.002 82.7102 185.609 82.2422 186.107C81.7791 186.599 81.1965 186.845 80.4945 186.845H78.4836V181.726H80.4945ZM80.4945 186.041C80.9771 186.041 81.3696 185.875 81.6718 185.544C81.9789 185.212 82.1325 184.793 82.1325 184.286C82.1325 183.774 81.9789 183.355 81.6718 183.028C81.3696 182.697 80.9771 182.531 80.4945 182.531H79.3245V186.041H80.4945ZM84.5518 186.041H86.8187V186.845H83.7108V181.726H86.7821V182.531H84.5518V183.862H86.5993V184.659H84.5518V186.041ZM89.9661 186.94C89.1958 186.94 88.5572 186.687 88.0502 186.18C87.5432 185.668 87.2897 185.037 87.2897 184.286C87.2897 183.535 87.5432 182.906 88.0502 182.399C88.5572 181.887 89.1958 181.631 89.9661 181.631C90.4292 181.631 90.8558 181.741 91.2458 181.96C91.6406 182.18 91.9478 182.477 92.1671 182.853L91.4359 183.277C91.2994 183.023 91.0995 182.823 90.8363 182.677C90.5779 182.526 90.2878 182.45 89.9661 182.45C89.4201 182.45 88.9764 182.623 88.6352 182.97C88.2988 183.316 88.1306 183.754 88.1306 184.286C88.1306 184.817 88.2988 185.256 88.6352 185.602C88.9764 185.948 89.4201 186.121 89.9661 186.121C90.2878 186.121 90.5803 186.048 90.8436 185.902C91.1068 185.751 91.3043 185.548 91.4359 185.295L92.1671 185.712C91.9526 186.087 91.6479 186.387 91.2531 186.611C90.8631 186.831 90.4341 186.94 89.9661 186.94Z" fill="#A5B4CB"/>
<path d="M96.6601 183.818C97.0306 183.906 97.3304 184.079 97.5595 184.337C97.7935 184.591 97.9105 184.91 97.9105 185.295C97.9105 185.807 97.7375 186.209 97.3913 186.502C97.0452 186.794 96.6211 186.94 96.119 186.94C95.729 186.94 95.378 186.85 95.066 186.67C94.7588 186.489 94.537 186.226 94.4005 185.88L95.1171 185.463C95.2683 185.902 95.6022 186.121 96.119 186.121C96.4115 186.121 96.643 186.048 96.8137 185.902C96.9843 185.751 97.0696 185.548 97.0696 185.295C97.0696 185.041 96.9843 184.842 96.8137 184.695C96.643 184.549 96.4115 184.476 96.119 184.476H95.9288L95.5925 183.971L96.6967 182.516H94.5541V181.726H97.6985V182.443L96.6601 183.818Z" fill="#1F203F"/>
<path d="M126.329 181.726C127.031 181.726 127.614 181.973 128.077 182.465C128.545 182.957 128.779 183.564 128.779 184.286C128.779 185.002 128.545 185.609 128.077 186.107C127.614 186.599 127.031 186.845 126.329 186.845H124.319V181.726H126.329ZM126.329 186.041C126.812 186.041 127.205 185.875 127.507 185.544C127.814 185.212 127.967 184.793 127.967 184.286C127.967 183.774 127.814 183.355 127.507 183.028C127.205 182.697 126.812 182.531 126.329 182.531H125.159V186.041H126.329ZM130.387 186.041H132.654V186.845H129.546V181.726H132.617V182.531H130.387V183.862H132.434V184.659H130.387V186.041ZM135.801 186.94C135.031 186.94 134.392 186.687 133.885 186.18C133.378 185.668 133.125 185.037 133.125 184.286C133.125 183.535 133.378 182.906 133.885 182.399C134.392 181.887 135.031 181.631 135.801 181.631C136.264 181.631 136.691 181.741 137.081 181.96C137.476 182.18 137.783 182.477 138.002 182.853L137.271 183.277C137.134 183.023 136.934 182.823 136.671 182.677C136.413 182.526 136.123 182.45 135.801 182.45C135.255 182.45 134.811 182.623 134.47 182.97C134.134 183.316 133.966 183.754 133.966 184.286C133.966 184.817 134.134 185.256 134.47 185.602C134.811 185.948 135.255 186.121 135.801 186.121C136.123 186.121 136.415 186.048 136.679 185.902C136.942 185.751 137.139 185.548 137.271 185.295L138.002 185.712C137.788 186.087 137.483 186.387 137.088 186.611C136.698 186.831 136.269 186.94 135.801 186.94Z" fill="#A5B4CB"/>
<path d="M144.17 185.141V185.924H143.585V186.845H142.736V185.924H140.221V185.141L141.983 181.726H142.897L141.135 185.141H142.736V183.811H143.585V185.141H144.17Z" fill="black"/>
<path d="M218.732 181.726C219.434 181.726 220.016 181.973 220.479 182.465C220.947 182.957 221.181 183.564 221.181 184.286C221.181 185.002 220.947 185.609 220.479 186.107C220.016 186.599 219.434 186.845 218.732 186.845H216.721V181.726H218.732ZM218.732 186.041C219.214 186.041 219.607 185.875 219.909 185.544C220.216 185.212 220.37 184.793 220.37 184.286C220.37 183.774 220.216 183.355 219.909 183.028C219.607 182.697 219.214 182.531 218.732 182.531H217.562V186.041H218.732ZM222.789 186.041H225.056V186.845H221.948V181.726H225.019V182.531H222.789V183.862H224.837V184.659H222.789V186.041ZM228.203 186.94C227.433 186.94 226.794 186.687 226.287 186.18C225.78 185.668 225.527 185.037 225.527 184.286C225.527 183.535 225.78 182.906 226.287 182.399C226.794 181.887 227.433 181.631 228.203 181.631C228.666 181.631 229.093 181.741 229.483 181.96C229.878 182.18 230.185 182.477 230.404 182.853L229.673 183.277C229.537 183.023 229.337 182.823 229.074 182.677C228.815 182.526 228.525 182.45 228.203 182.45C227.657 182.45 227.214 182.623 226.872 182.97C226.536 183.316 226.368 183.754 226.368 184.286C226.368 184.817 226.536 185.256 226.872 185.602C227.214 185.948 227.657 186.121 228.203 186.121C228.525 186.121 228.818 186.048 229.081 185.902C229.344 185.751 229.542 185.548 229.673 185.295L230.404 185.712C230.19 186.087 229.885 186.387 229.49 186.611C229.1 186.831 228.671 186.94 228.203 186.94Z" fill="#A5B4CB"/>
<path d="M234.451 183.445C234.983 183.445 235.417 183.608 235.753 183.935C236.089 184.257 236.258 184.676 236.258 185.193C236.258 185.709 236.089 186.131 235.753 186.458C235.417 186.779 234.983 186.94 234.451 186.94C233.915 186.94 233.479 186.779 233.142 186.458C232.806 186.131 232.638 185.709 232.638 185.193C232.638 184.803 232.74 184.459 232.945 184.162L234.568 181.726H235.526L234.356 183.445H234.451ZM234.451 186.143C234.734 186.143 234.966 186.058 235.146 185.887C235.326 185.712 235.417 185.48 235.417 185.193C235.417 184.905 235.326 184.676 235.146 184.505C234.966 184.33 234.734 184.242 234.451 184.242C234.164 184.242 233.93 184.33 233.749 184.505C233.569 184.676 233.479 184.905 233.479 185.193C233.479 185.48 233.569 185.712 233.749 185.887C233.93 186.058 234.164 186.143 234.451 186.143Z" fill="black"/>
<path d="M264.567 181.726C265.269 181.726 265.851 181.973 266.314 182.465C266.782 182.957 267.016 183.564 267.016 184.286C267.016 185.002 266.782 185.609 266.314 186.107C265.851 186.599 265.269 186.845 264.567 186.845H262.556V181.726H264.567ZM264.567 186.041C265.049 186.041 265.442 185.875 265.744 185.544C266.051 185.212 266.205 184.793 266.205 184.286C266.205 183.774 266.051 183.355 265.744 183.028C265.442 182.697 265.049 182.531 264.567 182.531H263.397V186.041H264.567ZM268.624 186.041H270.891V186.845H267.783V181.726H270.854V182.531H268.624V183.862H270.672V184.659H268.624V186.041ZM274.038 186.94C273.268 186.94 272.629 186.687 272.122 186.18C271.615 185.668 271.362 185.037 271.362 184.286C271.362 183.535 271.615 182.906 272.122 182.399C272.629 181.887 273.268 181.631 274.038 181.631C274.501 181.631 274.928 181.741 275.318 181.96C275.713 182.18 276.02 182.477 276.239 182.853L275.508 183.277C275.372 183.023 275.172 182.823 274.909 182.677C274.65 182.526 274.36 182.45 274.038 182.45C273.492 182.45 273.049 182.623 272.707 182.97C272.371 183.316 272.203 183.754 272.203 184.286C272.203 184.817 272.371 185.256 272.707 185.602C273.049 185.948 273.492 186.121 274.038 186.121C274.36 186.121 274.653 186.048 274.916 185.902C275.179 185.751 275.377 185.548 275.508 185.295L276.239 185.712C276.025 186.087 275.72 186.387 275.325 186.611C274.935 186.831 274.506 186.94 274.038 186.94Z" fill="#A5B4CB"/>
<path d="M278.4 181.726H281.654V182.458L279.855 186.845H278.97L280.74 182.531H278.4V181.726Z" fill="black"/>
<path d="M310.402 181.726C311.104 181.726 311.686 181.973 312.149 182.465C312.617 182.957 312.851 183.564 312.851 184.286C312.851 185.002 312.617 185.609 312.149 186.107C311.686 186.599 311.104 186.845 310.402 186.845H308.391V181.726H310.402ZM310.402 186.041C310.884 186.041 311.277 185.875 311.579 185.544C311.886 185.212 312.04 184.793 312.04 184.286C312.04 183.774 311.886 183.355 311.579 183.028C311.277 182.697 310.884 182.531 310.402 182.531H309.232V186.041H310.402ZM314.459 186.041H316.726V186.845H313.618V181.726H316.689V182.531H314.459V183.862H316.507V184.659H314.459V186.041ZM319.873 186.94C319.103 186.94 318.464 186.687 317.957 186.18C317.45 185.668 317.197 185.037 317.197 184.286C317.197 183.535 317.45 182.906 317.957 182.399C318.464 181.887 319.103 181.631 319.873 181.631C320.336 181.631 320.763 181.741 321.153 181.96C321.548 182.18 321.855 182.477 322.074 182.853L321.343 183.277C321.207 183.023 321.007 182.823 320.743 182.677C320.485 182.526 320.195 182.45 319.873 182.45C319.327 182.45 318.884 182.623 318.542 182.97C318.206 183.316 318.038 183.754 318.038 184.286C318.038 184.817 318.206 185.256 318.542 185.602C318.884 185.948 319.327 186.121 319.873 186.121C320.195 186.121 320.488 186.048 320.751 185.902C321.014 185.751 321.211 185.548 321.343 185.295L322.074 185.712C321.86 186.087 321.555 186.387 321.16 186.611C320.77 186.831 320.341 186.94 319.873 186.94Z" fill="#A5B4CB"/>
<path d="M327.218 184.183C327.72 184.461 327.971 184.876 327.971 185.427C327.971 185.895 327.808 186.265 327.481 186.538C327.155 186.806 326.721 186.94 326.18 186.94C325.639 186.94 325.202 186.806 324.871 186.538C324.544 186.265 324.381 185.895 324.381 185.427C324.381 185.163 324.447 184.924 324.578 184.71C324.71 184.491 324.895 184.315 325.134 184.183C324.749 183.93 324.556 183.569 324.556 183.101C324.556 182.633 324.712 182.272 325.024 182.019C325.336 181.761 325.722 181.631 326.18 181.631C326.633 181.631 327.016 181.761 327.328 182.019C327.645 182.272 327.803 182.633 327.803 183.101C327.803 183.569 327.608 183.93 327.218 184.183ZM326.18 182.428C325.951 182.428 325.763 182.489 325.617 182.611C325.47 182.733 325.397 182.909 325.397 183.138C325.397 183.357 325.47 183.53 325.617 183.657C325.768 183.784 325.956 183.847 326.18 183.847C326.399 183.847 326.584 183.784 326.736 183.657C326.887 183.53 326.962 183.357 326.962 183.138C326.962 182.909 326.887 182.733 326.736 182.611C326.589 182.489 326.404 182.428 326.18 182.428ZM326.18 186.143C326.463 186.143 326.692 186.075 326.867 185.938C327.043 185.797 327.13 185.6 327.13 185.346C327.13 185.093 327.043 184.898 326.867 184.761C326.692 184.62 326.463 184.549 326.18 184.549C325.892 184.549 325.661 184.62 325.485 184.761C325.31 184.898 325.222 185.093 325.222 185.346C325.222 185.6 325.31 185.797 325.485 185.938C325.661 186.075 325.892 186.143 326.18 186.143Z" fill="#080808"/>
<path d="M172.896 181.726C173.598 181.726 174.18 181.973 174.644 182.465C175.112 182.957 175.346 183.564 175.346 184.286C175.346 185.002 175.112 185.609 174.644 186.107C174.18 186.599 173.598 186.845 172.896 186.845H170.885V181.726H172.896ZM172.896 186.041C173.378 186.041 173.771 185.875 174.073 185.544C174.38 185.212 174.534 184.793 174.534 184.286C174.534 183.774 174.38 183.355 174.073 183.028C173.771 182.697 173.378 182.531 172.896 182.531H171.726V186.041H172.896ZM176.953 186.041H179.22V186.845H176.112V181.726H179.183V182.531H176.953V183.862H179.001V184.659H176.953V186.041ZM182.367 186.94C181.597 186.94 180.959 186.687 180.452 186.18C179.945 185.668 179.691 185.037 179.691 184.286C179.691 183.535 179.945 182.906 180.452 182.399C180.959 181.887 181.597 181.631 182.367 181.631C182.831 181.631 183.257 181.741 183.647 181.96C184.042 182.18 184.349 182.477 184.568 182.853L183.837 183.277C183.701 183.023 183.501 182.823 183.238 182.677C182.979 182.526 182.689 182.45 182.367 182.45C181.821 182.45 181.378 182.623 181.037 182.97C180.7 183.316 180.532 183.754 180.532 184.286C180.532 184.817 180.7 185.256 181.037 185.602C181.378 185.948 181.821 186.121 182.367 186.121C182.689 186.121 182.982 186.048 183.245 185.902C183.508 185.751 183.706 185.548 183.837 185.295L184.568 185.712C184.354 186.087 184.049 186.387 183.654 186.611C183.264 186.831 182.835 186.94 182.367 186.94ZM188.63 183.657C189.118 183.657 189.529 183.803 189.866 184.096C190.202 184.383 190.37 184.783 190.37 185.295C190.37 185.807 190.197 186.209 189.851 186.502C189.505 186.794 189.081 186.94 188.579 186.94C188.174 186.94 187.816 186.848 187.504 186.662C187.192 186.472 186.97 186.199 186.838 185.843L187.562 185.427C187.699 185.89 188.038 186.121 188.579 186.121C188.866 186.121 189.096 186.048 189.266 185.902C189.442 185.751 189.529 185.548 189.529 185.295C189.529 185.041 189.444 184.842 189.274 184.695C189.103 184.549 188.876 184.476 188.593 184.476H187.102L187.299 181.726H190.151V182.516H188.074L187.987 183.657H188.63Z" fill="#0177FB"/>
<path d="M4.58276 14.9993V15.7817H3.99776V16.7031H3.14951V15.7817H0.634008V14.9993L2.39632 11.5844H3.31038L1.54807 14.9993H3.14951V13.6684H3.99776V14.9993H4.58276ZM8.40045 16.7031H7.45714L5.95808 15.0139V16.7031H5.16833V11.5844H5.95808V14.6629L7.3767 13.0469H8.34195L6.7332 14.8384L8.40045 16.7031Z" fill="#A5B4CB"/>
<path d="M2.9082 50.1889C3.2787 50.2767 3.57851 50.4497 3.80763 50.7081C4.04163 50.9616 4.15863 51.2809 4.15863 51.6661C4.15863 52.1779 3.98557 52.5801 3.63945 52.8726C3.29332 53.1651 2.8692 53.3114 2.36707 53.3114C1.97707 53.3114 1.62607 53.2212 1.31407 53.0408C1.00695 52.8604 0.785133 52.5972 0.648633 52.2511L1.36526 51.8342C1.51638 52.273 1.85032 52.4924 2.36707 52.4924C2.65957 52.4924 2.89113 52.4192 3.06176 52.273C3.23238 52.1219 3.3177 51.9196 3.3177 51.6661C3.3177 51.4126 3.23238 51.2127 3.06176 51.0664C2.89113 50.9202 2.65957 50.8471 2.36707 50.8471H2.17695L1.84057 50.3425L2.94476 48.8873H0.802195V48.0976H3.94657V48.8142L2.9082 50.1889ZM8.10767 53.2163H7.16436L5.66529 51.5271V53.2163H4.87554V48.0976H5.66529V51.1761L7.08392 49.5601H8.04917L6.44042 51.3516L8.10767 53.2163Z" fill="#A5B4CB"/>
<path d="M0.692508 89.7803V89.1221L2.47676 87.3013C2.91063 86.8675 3.12757 86.4921 3.12757 86.1752C3.12757 85.9266 3.05201 85.734 2.90088 85.5975C2.75463 85.4561 2.56695 85.3855 2.33782 85.3855C1.90882 85.3855 1.59195 85.5975 1.3872 86.0216L0.677883 85.6048C0.838758 85.2636 1.06545 85.0052 1.35795 84.8297C1.65045 84.6542 1.97463 84.5665 2.33051 84.5665C2.77901 84.5665 3.16413 84.7078 3.48588 84.9906C3.80763 85.2733 3.96851 85.6585 3.96851 86.146C3.96851 86.6676 3.67845 87.2233 3.09832 87.8132L1.94295 88.9686H4.06357V89.7803H0.692508ZM8.02912 89.7803H7.0858L5.58674 88.0911V89.7803H4.79699V84.6615H5.58674V87.7401L7.00537 86.124H7.97062L6.36187 87.9156L8.02912 89.7803Z" fill="#A5B4CB"/>
<path d="M2.63783 121.048H3.36908V126.166H2.52814V121.947L1.49708 122.239L1.29233 121.523L2.63783 121.048ZM7.61084 126.166H6.66753L5.16847 124.477V126.166H4.37872V121.048H5.16847V124.126L6.58709 122.51H7.55234L5.94359 124.302L7.61084 126.166Z" fill="#A5B4CB"/>
<path d="M3.88115 162.213C3.53015 162.695 3.03777 162.937 2.40402 162.937C1.77027 162.937 1.27546 162.695 0.919586 162.213C0.568586 161.73 0.393086 161.087 0.393086 160.282C0.393086 159.478 0.568586 158.834 0.919586 158.352C1.27546 157.869 1.77027 157.628 2.40402 157.628C3.03777 157.628 3.53015 157.869 3.88115 158.352C4.23702 158.834 4.41496 159.478 4.41496 160.282C4.41496 161.087 4.23702 161.73 3.88115 162.213ZM2.40402 162.118C2.78427 162.118 3.07434 161.959 3.27421 161.642C3.47409 161.325 3.57402 160.872 3.57402 160.282C3.57402 159.692 3.47409 159.239 3.27421 158.922C3.07434 158.605 2.78427 158.447 2.40402 158.447C2.02865 158.447 1.73859 158.605 1.53384 158.922C1.33396 159.239 1.23402 159.692 1.23402 160.282C1.23402 160.872 1.33396 161.325 1.53384 161.642C1.73859 161.959 2.02865 162.118 2.40402 162.118ZM8.39942 162.842H7.4561L5.95704 161.152V162.842H5.16729V157.723H5.95704V160.801L7.37567 159.185H8.34092L6.73217 160.977L8.39942 162.842Z" fill="#A5B4CB"/>
<circle cx="9.96797" cy="44.8708" r="1.09687" fill="#0177FB"/>
<path d="M49.8214 119.734L32.1357 132.18V169.723L351.732 169.723V40.1495C347.15 39.9557 332.562 39.0139 317.729 41.6124C304.854 43.8677 291.795 49.4048 284.93 52.7822C266.462 61.868 269.622 75.2004 259.845 83.8912C250.068 92.582 239.402 94.6559 227.353 91.0019C215.305 87.3478 217.477 83.1999 206.12 75.9905C194.763 68.7811 182.616 68.1885 171.653 69.8674C160.796 71.5302 155.452 76.0364 147.434 82.7977L147.2 82.9954C139.05 89.8665 130.391 109.035 114.124 113.839C97.8577 118.643 95.3467 111.328 79.9534 109.035C67.6387 107.201 54.7343 115.404 49.8214 119.734Z" fill="url(#paint0_linear_1704_3)"/>
<path d="M32.1807 132.146L49.8663 119.7C54.7792 115.369 67.6836 107.167 79.9983 109.001C95.3917 111.294 97.9026 118.608 114.169 113.804C130.436 109.001 139.095 89.8321 147.245 82.9609C155.394 76.0898 160.736 71.5119 171.698 69.833C182.66 68.1541 194.808 68.7466 206.165 75.956C217.522 83.1654 215.35 87.3133 227.398 90.9674C239.447 94.6215 250.113 92.5475 259.89 83.8568C269.667 75.166 266.507 61.8335 284.975 52.7477C294.187 47.0862 320.508 36.5677 352.098 39.7852" stroke="#0177FB" stroke-width="1.4625"/>
<circle cx="88.6951" cy="110.481" r="8.04375" fill="white"/>
<path fill-rule="evenodd" clip-rule="evenodd" d="M89.2395 108.917L90.6776 110.407C90.8879 110.625 91.2351 110.631 91.4531 110.421C91.671 110.21 91.6771 109.863 91.4668 109.645L89.377 107.48C89.0176 107.108 88.4211 107.108 88.0617 107.48L85.9234 109.695C85.713 109.913 85.7191 110.26 85.9371 110.471C86.155 110.681 86.5022 110.675 86.7126 110.457L88.1495 108.968V113.762H89.2395V108.917Z" fill="#A5B4CB"/>
<circle cx="180.365" cy="68.1677" r="8.04375" transform="rotate(-180 180.365 68.1677)" fill="white"/>
<path fill-rule="evenodd" clip-rule="evenodd" d="M179.82 69.732L178.382 68.2421C178.172 68.0242 177.824 68.018 177.607 68.2284C177.389 68.4387 177.382 68.7859 177.593 69.0039L179.683 71.169C180.042 71.5413 180.638 71.5413 180.998 71.169L183.136 68.9538C183.347 68.7359 183.34 68.3887 183.123 68.1784C182.905 67.968 182.557 67.9741 182.347 68.192L180.91 69.6806L180.91 64.8867L179.82 64.8867L179.82 69.732Z" fill="#A5B4CB"/>
<circle cx="272.551" cy="63.6373" r="8.04375" fill="white"/>
<path fill-rule="evenodd" clip-rule="evenodd" d="M273.095 62.0731L274.533 63.5631C274.743 63.781 275.091 63.7871 275.309 63.5768C275.526 63.3664 275.533 63.0192 275.322 62.8013L273.232 60.6362C272.873 60.2639 272.277 60.2638 271.917 60.6362L269.779 62.8513C269.568 63.0693 269.575 63.4165 269.793 63.6268C270.01 63.8372 270.358 63.8311 270.568 63.6131L272.005 62.1245V66.9184H273.095V62.0731Z" fill="#A5B4CB"/>
<defs>
<linearGradient id="paint0_linear_1704_3" x1="180.605" y1="44.7216" x2="180.605" y2="169.722" gradientUnits="userSpaceOnUse">
<stop stop-color="#E0ECFC"/>
<stop offset="1" stop-color="white" stop-opacity="0"/>
</linearGradient>
</defs>
</svg>
