<svg width="28" height="28" viewBox="0 0 28 28" fill="none" xmlns="http://www.w3.org/2000/svg">
<g clip-path="url(#clip0_2458_63)" filter="url(#filter0_d_2458_63)">
<path d="M22.1588 7.53125H21.7342C21.5963 7.09961 21.4223 6.68031 21.2138 6.27746L21.5145 5.97676C22.2436 5.24844 22.2241 4.08125 21.5147 3.37266L20.6276 2.48555C19.9194 1.77645 18.752 1.7559 18.0235 2.48527L17.7225 2.78621C17.3197 2.57777 16.9004 2.40371 16.4688 2.26578V1.84113C16.4688 0.825937 15.6428 0 14.6276 0H13.3724C12.3572 0 11.5313 0.825937 11.5313 1.84113V2.26578C11.0996 2.40367 10.6803 2.57773 10.2775 2.78621L9.9768 2.48555C9.24973 1.75762 8.08234 1.77469 7.37273 2.48531L6.48551 3.37246C5.77645 4.08074 5.75594 5.24801 6.48527 5.97656L6.78621 6.2775C6.57773 6.68035 6.40371 7.09961 6.26578 7.53129H5.84117C4.82598 7.53125 4 8.35719 4 9.37238V10.6276C4 11.6428 4.82598 12.4688 5.84117 12.4688H6.26578C6.40371 12.9004 6.57773 13.3197 6.78621 13.7225L6.48551 14.0232C5.75641 14.7516 5.77594 15.9188 6.48527 16.6273L7.37242 17.5145C8.08059 18.2236 9.24801 18.2441 9.97652 17.5147L10.2775 17.2138C10.6803 17.4222 11.0996 17.5963 11.5313 17.7342V18.1589C11.5313 19.1741 12.3572 20 13.3724 20H14.6276C15.6428 20 16.4688 19.1741 16.4688 18.1589V17.7342C16.9004 17.5963 17.3197 17.4223 17.7226 17.2138L18.0232 17.5145C18.7503 18.2424 19.9177 18.2253 20.6273 17.5147L21.5145 16.6275C22.2236 15.9192 22.2441 14.752 21.5148 14.0234L21.2138 13.7225C21.4223 13.3196 21.5963 12.9004 21.7343 12.4687H22.1589C23.1741 12.4687 24 11.6427 24 10.6275V9.3723C24 8.35719 23.174 7.53125 22.1588 7.53125V7.53125ZM14 14.3516C11.6005 14.3516 9.64844 12.3995 9.64844 10C9.64844 7.60055 11.6005 5.64844 14 5.64844C16.3995 5.64844 18.3516 7.60055 18.3516 10C18.3516 12.3995 16.3995 14.3516 14 14.3516Z" fill="#B1B1B1"/>
</g>
<defs>
<filter id="filter0_d_2458_63" x="0" y="0" width="28" height="28" filterUnits="userSpaceOnUse" color-interpolation-filters="sRGB">
<feFlood flood-opacity="0" result="BackgroundImageFix"/>
<feColorMatrix in="SourceAlpha" type="matrix" values="0 0 0 0 0 0 0 0 0 0 0 0 0 0 0 0 0 0 127 0" result="hardAlpha"/>
<feOffset dy="4"/>
<feGaussianBlur stdDeviation="2"/>
<feComposite in2="hardAlpha" operator="out"/>
<feColorMatrix type="matrix" values="0 0 0 0 0 0 0 0 0 0 0 0 0 0 0 0 0 0 0.25 0"/>
<feBlend mode="normal" in2="BackgroundImageFix" result="effect1_dropShadow_2458_63"/>
<feBlend mode="normal" in="SourceGraphic" in2="effect1_dropShadow_2458_63" result="shape"/>
</filter>
<clipPath id="clip0_2458_63">
<rect width="20" height="20" fill="white" transform="translate(4)"/>
</clipPath>
</defs>
</svg>
