<svg width="20" height="20" viewBox="0 0 20 20" fill="none" xmlns="http://www.w3.org/2000/svg">
<path d="M17.3128 17.275L16.2465 5.56875C16.2178 5.24625 15.9478 5 15.624 5H13.749V3.75C13.749 2.745 13.359 1.8025 12.6528 1.09625C11.9578 0.4 10.9903 0 9.99902 0C7.93152 0 6.24902 1.6825 6.24902 3.75V5H4.37402C4.05027 5 3.78027 5.24625 3.75152 5.56875L2.68777 17.2738C2.62402 17.9725 2.85902 18.6688 3.33152 19.1863C3.80402 19.7038 4.47652 20 5.17777 20H14.8215C15.5215 20 16.194 19.7038 16.6665 19.1875C17.1403 18.67 17.374 17.9725 17.3128 17.275ZM12.499 5H7.49902V3.75C7.49902 2.37125 8.62027 1.25 9.99902 1.25C10.6615 1.25 11.3065 1.515 11.769 1.97875C12.2403 2.45 12.499 3.07875 12.499 3.75V5Z" fill="#FFBB38"/>
</svg>
