<svg width="325" height="225" viewBox="0 0 325 225" fill="none" xmlns="http://www.w3.org/2000/svg">
<rect width="325" height="225" rx="15" fill="white"/>
<path d="M75.3279 205H80.8336V204.062H76.7768V203.994L78.737 201.898C80.237 200.291 80.6802 199.541 80.6802 198.574C80.6802 197.227 79.5893 196.153 78.0552 196.153C76.5254 196.153 75.362 197.193 75.362 198.727H76.3677C76.3677 197.734 77.0112 197.074 78.0211 197.074C78.9671 197.074 79.6916 197.653 79.6916 198.574C79.6916 199.379 79.2186 199.976 78.2086 201.08L75.3279 204.233V205ZM85.4401 205.119C87.3663 205.119 88.4742 203.487 88.4742 200.636C88.4742 197.807 87.3492 196.153 85.4401 196.153C83.5311 196.153 82.4061 197.807 82.4061 200.636C82.4061 203.487 83.514 205.119 85.4401 205.119ZM85.4401 204.182C84.1703 204.182 83.4288 202.908 83.4288 200.636C83.4288 198.369 84.1788 197.074 85.4401 197.074C86.7015 197.074 87.4515 198.369 87.4515 200.636C87.4515 202.908 86.71 204.182 85.4401 204.182ZM93.1617 196.273H92.1049L89.9231 197.722V198.795L92.0538 197.381H92.1049V205H93.1617V196.273ZM98.5694 205.119C100.334 205.141 101.484 203.811 101.484 202.188C101.484 200.5 100.236 199.29 98.7399 199.29C97.8407 199.29 97.0694 199.729 96.5921 200.449H96.524C96.5282 198.322 97.3549 197.091 98.7058 197.091C99.6262 197.091 100.18 197.67 100.376 198.455H101.416C101.203 197.099 100.172 196.153 98.7058 196.153C96.7413 196.153 95.5353 197.892 95.5353 200.977C95.5353 204.203 97.1376 205.102 98.5694 205.119ZM98.5694 204.182C97.4742 204.182 96.6731 203.249 96.6774 202.205C96.6816 201.161 97.5211 200.227 98.6035 200.227C99.6731 200.227 100.461 201.105 100.461 202.188C100.461 203.295 99.639 204.182 98.5694 204.182Z" fill="#718EBF"/>
<path d="M115.831 205H121.336V204.062H117.279V203.994L119.24 201.898C120.74 200.291 121.183 199.541 121.183 198.574C121.183 197.227 120.092 196.153 118.558 196.153C117.028 196.153 115.865 197.193 115.865 198.727H116.87C116.87 197.734 117.514 197.074 118.524 197.074C119.47 197.074 120.194 197.653 120.194 198.574C120.194 199.379 119.721 199.976 118.711 201.08L115.831 204.233V205ZM125.943 205.119C127.869 205.119 128.977 203.487 128.977 200.636C128.977 197.807 127.852 196.153 125.943 196.153C124.034 196.153 122.909 197.807 122.909 200.636C122.909 203.487 124.017 205.119 125.943 205.119ZM125.943 204.182C124.673 204.182 123.931 202.908 123.931 200.636C123.931 198.369 124.681 197.074 125.943 197.074C127.204 197.074 127.954 198.369 127.954 200.636C127.954 202.908 127.213 204.182 125.943 204.182ZM133.664 196.273H132.607L130.426 197.722V198.795L132.556 197.381H132.607V205H133.664V196.273ZM136.447 205H137.555L141.441 197.261V196.273H135.85V197.21H140.35V197.278L136.447 205Z" fill="#718EBF"/>
<path d="M155.747 205H161.253V204.062H157.196V203.994L159.156 201.898C160.656 200.291 161.1 199.541 161.1 198.574C161.1 197.227 160.009 196.153 158.475 196.153C156.945 196.153 155.781 197.193 155.781 198.727H156.787C156.787 197.734 157.43 197.074 158.44 197.074C159.386 197.074 160.111 197.653 160.111 198.574C160.111 199.379 159.638 199.976 158.628 201.08L155.747 204.233V205ZM165.859 205.119C167.786 205.119 168.894 203.487 168.894 200.636C168.894 197.807 167.769 196.153 165.859 196.153C163.95 196.153 162.825 197.807 162.825 200.636C162.825 203.487 163.933 205.119 165.859 205.119ZM165.859 204.182C164.59 204.182 163.848 202.908 163.848 200.636C163.848 198.369 164.598 197.074 165.859 197.074C167.121 197.074 167.871 198.369 167.871 200.636C167.871 202.908 167.129 204.182 165.859 204.182ZM173.581 196.273H172.524L170.342 197.722V198.795L172.473 197.381H172.524V205H173.581V196.273ZM178.886 205.119C180.629 205.119 181.844 204.101 181.852 202.682C181.844 201.578 181.107 200.641 180.165 200.466V200.415C180.983 200.202 181.52 199.401 181.528 198.472C181.52 197.142 180.403 196.153 178.886 196.153C177.352 196.153 176.236 197.142 176.244 198.472C176.236 199.401 176.773 200.202 177.608 200.415V200.466C176.649 200.641 175.912 201.578 175.921 202.682C175.912 204.101 177.127 205.119 178.886 205.119ZM178.886 204.182C177.689 204.182 176.952 203.568 176.96 202.631C176.952 201.646 177.766 200.943 178.886 200.943C179.99 200.943 180.804 201.646 180.813 202.631C180.804 203.568 180.067 204.182 178.886 204.182ZM178.886 200.04C177.932 200.04 177.259 199.443 177.267 198.54C177.259 197.653 177.906 197.074 178.886 197.074C179.85 197.074 180.497 197.653 180.506 198.54C180.497 199.443 179.824 200.04 178.886 200.04Z" fill="#718EBF"/>
<path d="M196.381 205H201.887V204.062H197.83V203.994L199.79 201.898C201.29 200.291 201.734 199.541 201.734 198.574C201.734 197.227 200.643 196.153 199.109 196.153C197.579 196.153 196.415 197.193 196.415 198.727H197.421C197.421 197.734 198.065 197.074 199.075 197.074C200.021 197.074 200.745 197.653 200.745 198.574C200.745 199.379 200.272 199.976 199.262 201.08L196.381 204.233V205ZM206.494 205.119C208.42 205.119 209.528 203.487 209.528 200.636C209.528 197.807 208.403 196.153 206.494 196.153C204.585 196.153 203.46 197.807 203.46 200.636C203.46 203.487 204.567 205.119 206.494 205.119ZM206.494 204.182C205.224 204.182 204.482 202.908 204.482 200.636C204.482 198.369 205.232 197.074 206.494 197.074C207.755 197.074 208.505 198.369 208.505 200.636C208.505 202.908 207.763 204.182 206.494 204.182ZM214.215 196.273H213.158L210.977 197.722V198.795L213.107 197.381H213.158V205H214.215V196.273ZM219.504 196.153C217.731 196.132 216.589 197.466 216.589 199.068C216.589 200.756 217.833 201.966 219.333 201.966C220.237 201.966 221.004 201.523 221.481 200.807H221.549C221.549 202.955 220.714 204.182 219.367 204.182C218.447 204.182 217.884 203.602 217.697 202.801H216.657C216.862 204.182 217.901 205.119 219.367 205.119C221.327 205.119 222.538 203.381 222.538 200.278C222.538 197.074 220.935 196.17 219.504 196.153ZM219.504 197.091C220.594 197.091 221.396 198.028 221.396 199.051C221.396 200.091 220.543 201.028 219.469 201.028C218.396 201.028 217.612 200.159 217.612 199.068C217.612 197.977 218.43 197.091 219.504 197.091Z" fill="#718EBF"/>
<path d="M235.872 205H241.378V204.062H237.321V203.994L239.281 201.898C240.781 200.291 241.225 199.541 241.225 198.574C241.225 197.227 240.134 196.153 238.6 196.153C237.07 196.153 235.906 197.193 235.906 198.727H236.912C236.912 197.734 237.556 197.074 238.565 197.074C239.511 197.074 240.236 197.653 240.236 198.574C240.236 199.379 239.763 199.976 238.753 201.08L235.872 204.233V205ZM245.984 205.119C247.911 205.119 249.019 203.487 249.019 200.636C249.019 197.807 247.894 196.153 245.984 196.153C244.075 196.153 242.95 197.807 242.95 200.636C242.95 203.487 244.058 205.119 245.984 205.119ZM245.984 204.182C244.715 204.182 243.973 202.908 243.973 200.636C243.973 198.369 244.723 197.074 245.984 197.074C247.246 197.074 247.996 198.369 247.996 200.636C247.996 202.908 247.254 204.182 245.984 204.182ZM250.638 205H256.144V204.062H252.087V203.994L254.047 201.898C255.547 200.291 255.99 199.541 255.99 198.574C255.99 197.227 254.899 196.153 253.365 196.153C251.835 196.153 250.672 197.193 250.672 198.727H251.678C251.678 197.734 252.321 197.074 253.331 197.074C254.277 197.074 255.002 197.653 255.002 198.574C255.002 199.379 254.529 199.976 253.519 201.08L250.638 204.233V205ZM260.75 205.119C262.676 205.119 263.784 203.487 263.784 200.636C263.784 197.807 262.659 196.153 260.75 196.153C258.841 196.153 257.716 197.807 257.716 200.636C257.716 203.487 258.824 205.119 260.75 205.119ZM260.75 204.182C259.48 204.182 258.739 202.908 258.739 200.636C258.739 198.369 259.489 197.074 260.75 197.074C262.011 197.074 262.761 198.369 262.761 200.636C262.761 202.908 262.02 204.182 260.75 204.182Z" fill="#718EBF"/>
<path d="M275.833 205H281.339V204.062H277.282V203.994L279.242 201.898C280.742 200.291 281.185 199.541 281.185 198.574C281.185 197.227 280.095 196.153 278.56 196.153C277.031 196.153 275.867 197.193 275.867 198.727H276.873C276.873 197.734 277.516 197.074 278.526 197.074C279.472 197.074 280.197 197.653 280.197 198.574C280.197 199.379 279.724 199.976 278.714 201.08L275.833 204.233V205ZM285.945 205.119C287.872 205.119 288.98 203.487 288.98 200.636C288.98 197.807 287.855 196.153 285.945 196.153C284.036 196.153 282.911 197.807 282.911 200.636C282.911 203.487 284.019 205.119 285.945 205.119ZM285.945 204.182C284.676 204.182 283.934 202.908 283.934 200.636C283.934 198.369 284.684 197.074 285.945 197.074C287.207 197.074 287.957 198.369 287.957 200.636C287.957 202.908 287.215 204.182 285.945 204.182ZM290.599 205H296.105V204.062H292.048V203.994L294.008 201.898C295.508 200.291 295.951 199.541 295.951 198.574C295.951 197.227 294.86 196.153 293.326 196.153C291.796 196.153 290.633 197.193 290.633 198.727H291.639C291.639 197.734 292.282 197.074 293.292 197.074C294.238 197.074 294.962 197.653 294.962 198.574C294.962 199.379 294.489 199.976 293.48 201.08L290.599 204.233V205ZM300.933 196.273H299.876L297.694 197.722V198.795L299.825 197.381H299.876V205H300.933V196.273Z" fill="#718EBF"/>
<path d="M25.4929 147.091H26.1918V146.141C27.9815 146.017 28.9872 144.96 28.9872 143.631C28.9872 141.994 27.4361 141.466 26.5327 141.227L26.1918 141.134V138.104C27.0952 138.193 27.7514 138.679 27.8452 139.455H28.8679C28.8253 138.21 27.7344 137.264 26.1918 137.162V136.182H25.4929V137.175C24.0312 137.324 22.9361 138.253 22.9361 139.591C22.9361 140.767 23.7884 141.466 25.152 141.858L25.4929 141.956V145.182C24.598 145.088 23.8651 144.628 23.7884 143.75H22.6974C22.7955 145.092 23.8182 146.03 25.4929 146.141V147.091ZM26.1918 145.182V142.156L26.2259 142.165C27.1463 142.42 27.9645 142.744 27.9645 143.614C27.9645 144.47 27.223 145.067 26.1918 145.182ZM25.4929 140.946C24.8452 140.763 23.9588 140.405 23.9588 139.54C23.9588 138.803 24.5554 138.24 25.4929 138.116V140.946ZM33.6396 137.273H32.5827L30.4009 138.722V139.795L32.5316 138.381H32.5827V146H33.6396V137.273ZM38.9961 146.119C40.9222 146.119 42.0302 144.487 42.0302 141.636C42.0302 138.807 40.9052 137.153 38.9961 137.153C37.087 137.153 35.962 138.807 35.962 141.636C35.962 144.487 37.07 146.119 38.9961 146.119ZM38.9961 145.182C37.7262 145.182 36.9847 143.908 36.9847 141.636C36.9847 139.369 37.7347 138.074 38.9961 138.074C40.2575 138.074 41.0075 139.369 41.0075 141.636C41.0075 143.908 40.266 145.182 38.9961 145.182ZM44.8619 144.807H43.771L43.7198 145.284C43.5962 146.439 43.3533 147.589 43.2425 148.131H44.0096C44.2141 147.551 44.6488 146.239 44.7937 145.267L44.8619 144.807ZM49.25 146.119C51.1761 146.119 52.2841 144.487 52.2841 141.636C52.2841 138.807 51.1591 137.153 49.25 137.153C47.3409 137.153 46.2159 138.807 46.2159 141.636C46.2159 144.487 47.3239 146.119 49.25 146.119ZM49.25 145.182C47.9801 145.182 47.2386 143.908 47.2386 141.636C47.2386 139.369 47.9886 138.074 49.25 138.074C50.5114 138.074 51.2614 139.369 51.2614 141.636C51.2614 143.908 50.5199 145.182 49.25 145.182ZM56.75 146.119C58.6761 146.119 59.7841 144.487 59.7841 141.636C59.7841 138.807 58.6591 137.153 56.75 137.153C54.8409 137.153 53.7159 138.807 53.7159 141.636C53.7159 144.487 54.8239 146.119 56.75 146.119ZM56.75 145.182C55.4801 145.182 54.7386 143.908 54.7386 141.636C54.7386 139.369 55.4886 138.074 56.75 138.074C58.0114 138.074 58.7614 139.369 58.7614 141.636C58.7614 143.908 58.0199 145.182 56.75 145.182ZM64.25 146.119C66.1761 146.119 67.2841 144.487 67.2841 141.636C67.2841 138.807 66.1591 137.153 64.25 137.153C62.3409 137.153 61.2159 138.807 61.2159 141.636C61.2159 144.487 62.3239 146.119 64.25 146.119ZM64.25 145.182C62.9801 145.182 62.2386 143.908 62.2386 141.636C62.2386 139.369 62.9886 138.074 64.25 138.074C65.5114 138.074 66.2614 139.369 66.2614 141.636C66.2614 143.908 65.5199 145.182 64.25 145.182Z" fill="#718EBF"/>
<path d="M23.8054 108.091H24.5043V107.141C26.294 107.017 27.2997 105.96 27.2997 104.631C27.2997 102.994 25.7486 102.466 24.8452 102.227L24.5043 102.134V99.1037C25.4077 99.1932 26.0639 99.679 26.1577 100.455H27.1804C27.1378 99.2102 26.0469 98.2642 24.5043 98.1619V97.1818H23.8054V98.1747C22.3438 98.3239 21.2486 99.2528 21.2486 100.591C21.2486 101.767 22.1009 102.466 23.4645 102.858L23.8054 102.956V106.182C22.9105 106.088 22.1776 105.628 22.1009 104.75H21.0099C21.108 106.092 22.1307 107.03 23.8054 107.141V108.091ZM24.5043 106.182V103.156L24.5384 103.165C25.4588 103.42 26.277 103.744 26.277 104.614C26.277 105.47 25.5355 106.067 24.5043 106.182ZM23.8054 101.946C23.1577 101.763 22.2713 101.405 22.2713 100.54C22.2713 99.8026 22.8679 99.2401 23.8054 99.1165V101.946ZM28.8839 107H34.3896V106.062H30.3327V105.994L32.293 103.898C33.793 102.291 34.2362 101.541 34.2362 100.574C34.2362 99.2273 33.1452 98.1534 31.6112 98.1534C30.0813 98.1534 28.918 99.1932 28.918 100.727H29.9237C29.9237 99.7344 30.5671 99.0739 31.5771 99.0739C32.5231 99.0739 33.2475 99.6534 33.2475 100.574C33.2475 101.379 32.7745 101.976 31.7646 103.08L28.8839 106.233V107ZM38.9961 107.119C40.9222 107.119 42.0302 105.487 42.0302 102.636C42.0302 99.8068 40.9052 98.1534 38.9961 98.1534C37.087 98.1534 35.962 99.8068 35.962 102.636C35.962 105.487 37.07 107.119 38.9961 107.119ZM38.9961 106.182C37.7262 106.182 36.9847 104.908 36.9847 102.636C36.9847 100.369 37.7347 99.0739 38.9961 99.0739C40.2575 99.0739 41.0075 100.369 41.0075 102.636C41.0075 104.908 40.266 106.182 38.9961 106.182ZM44.8619 105.807H43.771L43.7198 106.284C43.5962 107.439 43.3533 108.589 43.2425 109.131H44.0096C44.2141 108.551 44.6488 107.239 44.7937 106.267L44.8619 105.807ZM49.25 107.119C51.1761 107.119 52.2841 105.487 52.2841 102.636C52.2841 99.8068 51.1591 98.1534 49.25 98.1534C47.3409 98.1534 46.2159 99.8068 46.2159 102.636C46.2159 105.487 47.3239 107.119 49.25 107.119ZM49.25 106.182C47.9801 106.182 47.2386 104.908 47.2386 102.636C47.2386 100.369 47.9886 99.0739 49.25 99.0739C50.5114 99.0739 51.2614 100.369 51.2614 102.636C51.2614 104.908 50.5199 106.182 49.25 106.182ZM56.75 107.119C58.6761 107.119 59.7841 105.487 59.7841 102.636C59.7841 99.8068 58.6591 98.1534 56.75 98.1534C54.8409 98.1534 53.7159 99.8068 53.7159 102.636C53.7159 105.487 54.8239 107.119 56.75 107.119ZM56.75 106.182C55.4801 106.182 54.7386 104.908 54.7386 102.636C54.7386 100.369 55.4886 99.0739 56.75 99.0739C58.0114 99.0739 58.7614 100.369 58.7614 102.636C58.7614 104.908 58.0199 106.182 56.75 106.182ZM64.25 107.119C66.1761 107.119 67.2841 105.487 67.2841 102.636C67.2841 99.8068 66.1591 98.1534 64.25 98.1534C62.3409 98.1534 61.2159 99.8068 61.2159 102.636C61.2159 105.487 62.3239 107.119 64.25 107.119ZM64.25 106.182C62.9801 106.182 62.2386 104.908 62.2386 102.636C62.2386 100.369 62.9886 99.0739 64.25 99.0739C65.5114 99.0739 66.2614 100.369 66.2614 102.636C66.2614 104.908 65.5199 106.182 64.25 106.182Z" fill="#718EBF"/>
<path d="M23.4304 69.0909H24.1293V68.1406C25.919 68.017 26.9247 66.9602 26.9247 65.6307C26.9247 63.9943 25.3736 63.4659 24.4702 63.2273L24.1293 63.1335V60.1037C25.0327 60.1932 25.6889 60.679 25.7827 61.4545H26.8054C26.7628 60.2102 25.6719 59.2642 24.1293 59.1619V58.1818H23.4304V59.1747C21.9688 59.3239 20.8736 60.2528 20.8736 61.5909C20.8736 62.767 21.7259 63.4659 23.0895 63.858L23.4304 63.956V67.1818C22.5355 67.0881 21.8026 66.6278 21.7259 65.75H20.6349C20.733 67.0923 21.7557 68.0298 23.4304 68.1406V69.0909ZM24.1293 67.1818V64.1562L24.1634 64.1648C25.0838 64.4205 25.902 64.7443 25.902 65.6136C25.902 66.4702 25.1605 67.0668 24.1293 67.1818ZM23.4304 62.946C22.7827 62.7628 21.8963 62.4048 21.8963 61.5398C21.8963 60.8026 22.4929 60.2401 23.4304 60.1165V62.946ZM31.4577 68.1193C33.1495 68.1193 34.4066 67.0582 34.4066 65.6307C34.4066 64.5227 33.7504 63.7173 32.6509 63.5341V63.4659C33.533 63.1974 34.0827 62.473 34.0827 61.4886C34.0827 60.2528 33.1069 59.1534 31.4918 59.1534C29.9833 59.1534 28.7305 60.0824 28.6793 61.4545H29.7021C29.7404 60.5852 30.5671 60.0739 31.4748 60.0739C32.4379 60.0739 33.06 60.6577 33.06 61.5398C33.06 62.4602 32.3398 63.0568 31.3043 63.0568H30.6055V63.9943H31.3043C32.6296 63.9943 33.3668 64.6676 33.3668 65.6307C33.3668 66.5554 32.5614 67.1818 31.4407 67.1818C30.4308 67.1818 29.6296 66.6619 29.5657 65.8182H28.4918C28.5558 67.1903 29.766 68.1193 31.4577 68.1193ZM38.9961 68.1193C40.9222 68.1193 42.0302 66.4872 42.0302 63.6364C42.0302 60.8068 40.9052 59.1534 38.9961 59.1534C37.087 59.1534 35.962 60.8068 35.962 63.6364C35.962 66.4872 37.07 68.1193 38.9961 68.1193ZM38.9961 67.1818C37.7262 67.1818 36.9847 65.9077 36.9847 63.6364C36.9847 61.3693 37.7347 60.0739 38.9961 60.0739C40.2575 60.0739 41.0075 61.3693 41.0075 63.6364C41.0075 65.9077 40.266 67.1818 38.9961 67.1818ZM44.8619 66.8068H43.771L43.7198 67.2841C43.5962 68.4389 43.3533 69.5895 43.2425 70.1307H44.0096C44.2141 69.5511 44.6488 68.2386 44.7937 67.267L44.8619 66.8068ZM49.25 68.1193C51.1761 68.1193 52.2841 66.4872 52.2841 63.6364C52.2841 60.8068 51.1591 59.1534 49.25 59.1534C47.3409 59.1534 46.2159 60.8068 46.2159 63.6364C46.2159 66.4872 47.3239 68.1193 49.25 68.1193ZM49.25 67.1818C47.9801 67.1818 47.2386 65.9077 47.2386 63.6364C47.2386 61.3693 47.9886 60.0739 49.25 60.0739C50.5114 60.0739 51.2614 61.3693 51.2614 63.6364C51.2614 65.9077 50.5199 67.1818 49.25 67.1818ZM56.75 68.1193C58.6761 68.1193 59.7841 66.4872 59.7841 63.6364C59.7841 60.8068 58.6591 59.1534 56.75 59.1534C54.8409 59.1534 53.7159 60.8068 53.7159 63.6364C53.7159 66.4872 54.8239 68.1193 56.75 68.1193ZM56.75 67.1818C55.4801 67.1818 54.7386 65.9077 54.7386 63.6364C54.7386 61.3693 55.4886 60.0739 56.75 60.0739C58.0114 60.0739 58.7614 61.3693 58.7614 63.6364C58.7614 65.9077 58.0199 67.1818 56.75 67.1818ZM64.25 68.1193C66.1761 68.1193 67.2841 66.4872 67.2841 63.6364C67.2841 60.8068 66.1591 59.1534 64.25 59.1534C62.3409 59.1534 61.2159 60.8068 61.2159 63.6364C61.2159 66.4872 62.3239 68.1193 64.25 68.1193ZM64.25 67.1818C62.9801 67.1818 62.2386 65.9077 62.2386 63.6364C62.2386 61.3693 62.9886 60.0739 64.25 60.0739C65.5114 60.0739 66.2614 61.3693 66.2614 63.6364C66.2614 65.9077 65.5199 67.1818 64.25 67.1818Z" fill="#718EBF"/>
<path d="M23.3718 30.0909H24.0707V29.1406C25.8604 29.017 26.8661 27.9602 26.8661 26.6307C26.8661 24.9943 25.315 24.4659 24.4116 24.2273L24.0707 24.1335V21.1037C24.9741 21.1932 25.6303 21.679 25.7241 22.4545H26.7468C26.7042 21.2102 25.6133 20.2642 24.0707 20.1619V19.1818H23.3718V20.1747C21.9102 20.3239 20.815 21.2528 20.815 22.5909C20.815 23.767 21.6673 24.4659 23.0309 24.858L23.3718 24.956V28.1818C22.4769 28.0881 21.744 27.6278 21.6673 26.75H20.5763C20.6744 28.0923 21.6971 29.0298 23.3718 29.1406V30.0909ZM24.0707 28.1818V25.1562L24.1048 25.1648C25.0252 25.4205 25.8434 25.7443 25.8434 26.6136C25.8434 27.4702 25.1019 28.0668 24.0707 28.1818ZM23.3718 23.946C22.7241 23.7628 21.8377 23.4048 21.8377 22.5398C21.8377 21.8026 22.4343 21.2401 23.3718 21.1165V23.946ZM28.2457 27.2102H32.3537V29H33.3594V27.2102H34.5526V26.2727H33.3594V20.2727H32.081L28.2457 26.3409V27.2102ZM32.3537 26.2727H29.3878V26.2045L32.2855 21.6193H32.3537V26.2727ZM38.9961 29.1193C40.9222 29.1193 42.0302 27.4872 42.0302 24.6364C42.0302 21.8068 40.9052 20.1534 38.9961 20.1534C37.087 20.1534 35.962 21.8068 35.962 24.6364C35.962 27.4872 37.07 29.1193 38.9961 29.1193ZM38.9961 28.1818C37.7262 28.1818 36.9847 26.9077 36.9847 24.6364C36.9847 22.3693 37.7347 21.0739 38.9961 21.0739C40.2575 21.0739 41.0075 22.3693 41.0075 24.6364C41.0075 26.9077 40.266 28.1818 38.9961 28.1818ZM44.8619 27.8068H43.771L43.7198 28.2841C43.5962 29.4389 43.3533 30.5895 43.2425 31.1307H44.0096C44.2141 30.5511 44.6488 29.2386 44.7937 28.267L44.8619 27.8068ZM49.25 29.1193C51.1761 29.1193 52.2841 27.4872 52.2841 24.6364C52.2841 21.8068 51.1591 20.1534 49.25 20.1534C47.3409 20.1534 46.2159 21.8068 46.2159 24.6364C46.2159 27.4872 47.3239 29.1193 49.25 29.1193ZM49.25 28.1818C47.9801 28.1818 47.2386 26.9077 47.2386 24.6364C47.2386 22.3693 47.9886 21.0739 49.25 21.0739C50.5114 21.0739 51.2614 22.3693 51.2614 24.6364C51.2614 26.9077 50.5199 28.1818 49.25 28.1818ZM56.75 29.1193C58.6761 29.1193 59.7841 27.4872 59.7841 24.6364C59.7841 21.8068 58.6591 20.1534 56.75 20.1534C54.8409 20.1534 53.7159 21.8068 53.7159 24.6364C53.7159 27.4872 54.8239 29.1193 56.75 29.1193ZM56.75 28.1818C55.4801 28.1818 54.7386 26.9077 54.7386 24.6364C54.7386 22.3693 55.4886 21.0739 56.75 21.0739C58.0114 21.0739 58.7614 22.3693 58.7614 24.6364C58.7614 26.9077 58.0199 28.1818 56.75 28.1818ZM64.25 29.1193C66.1761 29.1193 67.2841 27.4872 67.2841 24.6364C67.2841 21.8068 66.1591 20.1534 64.25 20.1534C62.3409 20.1534 61.2159 21.8068 61.2159 24.6364C61.2159 27.4872 62.3239 29.1193 64.25 29.1193ZM64.25 28.1818C62.9801 28.1818 62.2386 26.9077 62.2386 24.6364C62.2386 22.3693 62.9886 21.0739 64.25 21.0739C65.5114 21.0739 66.2614 22.3693 66.2614 24.6364C66.2614 26.9077 65.5199 28.1818 64.25 28.1818Z" fill="#718EBF"/>
<path d="M56.3249 186.091H57.0238V185.141C58.8136 185.017 59.8192 183.96 59.8192 182.631C59.8192 180.994 58.2681 180.466 57.3647 180.227L57.0238 180.134V177.104C57.9272 177.193 58.5835 177.679 58.6772 178.455H59.6999C59.6573 177.21 58.5664 176.264 57.0238 176.162V175.182H56.3249V176.175C54.8633 176.324 53.7681 177.253 53.7681 178.591C53.7681 179.767 54.6204 180.466 55.984 180.858L56.3249 180.956V184.182C55.43 184.088 54.6971 183.628 54.6204 182.75H53.5295C53.6275 184.092 54.6502 185.03 56.3249 185.141V186.091ZM57.0238 184.182V181.156L57.0579 181.165C57.9783 181.42 58.7965 181.744 58.7965 182.614C58.7965 183.47 58.055 184.067 57.0238 184.182ZM56.3249 179.946C55.6772 179.763 54.7908 179.405 54.7908 178.54C54.7908 177.803 55.3874 177.24 56.3249 177.116V179.946ZM64.25 185.119C66.1761 185.119 67.2841 183.487 67.2841 180.636C67.2841 177.807 66.1591 176.153 64.25 176.153C62.3409 176.153 61.2159 177.807 61.2159 180.636C61.2159 183.487 62.3239 185.119 64.25 185.119ZM64.25 184.182C62.9801 184.182 62.2386 182.908 62.2386 180.636C62.2386 178.369 62.9886 177.074 64.25 177.074C65.5114 177.074 66.2614 178.369 66.2614 180.636C66.2614 182.908 65.5199 184.182 64.25 184.182Z" fill="#718EBF"/>
<rect x="73.2055" y="185.384" width="231.589" height="0.410995" stroke="#DFE5EE" stroke-width="0.410995" stroke-dasharray="4 4"/>
<rect x="73.2055" y="147.572" width="231.589" height="0.410995" stroke="#DFE5EE" stroke-width="0.410995" stroke-dasharray="4 4"/>
<rect x="73.2055" y="108.117" width="231.589" height="0.410995" stroke="#DFE5EE" stroke-width="0.410995" stroke-dasharray="4 4"/>
<rect x="73.2055" y="68.6611" width="231.589" height="0.410995" stroke="#DFE5EE" stroke-width="0.410995" stroke-dasharray="4 4"/>
<rect x="73.2055" y="29.2055" width="231.589" height="0.410995" stroke="#DFE5EE" stroke-width="0.410995" stroke-dasharray="4 4"/>
<path d="M82 163L125.141 95.8041L166.578 125.845L209.435 46L252.008 106.872L296 76.0405" stroke="#FCAA0B" stroke-width="3" stroke-linecap="round" stroke-linejoin="round"/>
<circle cx="82" cy="163" r="3.75" fill="white" stroke="#EDA10D" stroke-width="2.5"/>
<circle cx="125" cy="97" r="3.75" fill="white" stroke="#EDA10D" stroke-width="2.5"/>
<circle cx="166" cy="125" r="3.75" fill="white" stroke="#EDA10D" stroke-width="2.5"/>
<circle cx="210" cy="47" r="3.75" fill="white" stroke="#EDA10D" stroke-width="2.5"/>
<circle cx="252" cy="106" r="3.75" fill="white" stroke="#EDA10D" stroke-width="2.5"/>
<circle cx="296" cy="76" r="3.75" fill="white" stroke="#EDA10D" stroke-width="2.5"/>
</svg>
